<svg width="237" height="80" viewBox="0 0 237 80" fill="none" xmlns="http://www.w3.org/2000/svg">
<rect y="12" width="237" height="68" rx="20" fill="#56504F"/>
<rect width="237" height="74" rx="20" fill="black"/>
<path d="M37.832 46V31.432H32.24V28.72H46.316V31.432H40.724V46H37.832ZM47.0394 46V33.04H49.5954V36.196L49.2834 35.788C49.4434 35.356 49.6554 34.964 49.9194 34.612C50.1914 34.252 50.5154 33.956 50.8914 33.724C51.2114 33.508 51.5634 33.34 51.9474 33.22C52.3394 33.092 52.7394 33.016 53.1474 32.992C53.5554 32.96 53.9514 32.976 54.3354 33.04V35.74C53.9514 35.628 53.5074 35.592 53.0034 35.632C52.5074 35.672 52.0594 35.812 51.6594 36.052C51.2594 36.268 50.9314 36.544 50.6754 36.88C50.4274 37.216 50.2434 37.6 50.1234 38.032C50.0034 38.456 49.9434 38.916 49.9434 39.412V46H47.0394ZM57.9309 51.76L60.4269 44.908L60.4749 46.924L54.8229 33.04H57.8349L61.8429 43.312H61.0749L64.9749 33.04H67.8669L60.6429 51.76H57.9309ZM81.7693 46.36C80.0413 46.36 78.5613 45.984 77.3293 45.232C76.0973 44.472 75.1493 43.416 74.4853 42.064C73.8293 40.712 73.5013 39.144 73.5013 37.36C73.5013 35.576 73.8293 34.008 74.4853 32.656C75.1493 31.304 76.0973 30.252 77.3293 29.5C78.5613 28.74 80.0413 28.36 81.7693 28.36C83.7613 28.36 85.4213 28.86 86.7493 29.86C88.0773 30.852 89.0093 32.192 89.5453 33.88L86.6293 34.684C86.2933 33.556 85.7213 32.676 84.9133 32.044C84.1053 31.404 83.0573 31.084 81.7693 31.084C80.6093 31.084 79.6413 31.344 78.8653 31.864C78.0973 32.384 77.5173 33.116 77.1253 34.06C76.7413 34.996 76.5453 36.096 76.5373 37.36C76.5373 38.624 76.7293 39.728 77.1133 40.672C77.5053 41.608 78.0893 42.336 78.8653 42.856C79.6413 43.376 80.6093 43.636 81.7693 43.636C83.0573 43.636 84.1053 43.316 84.9133 42.676C85.7213 42.036 86.2933 41.156 86.6293 40.036L89.5453 40.84C89.0093 42.528 88.0773 43.872 86.7493 44.872C85.4213 45.864 83.7613 46.36 81.7693 46.36ZM95.804 46.36C94.868 46.36 94.076 46.184 93.428 45.832C92.78 45.472 92.288 44.996 91.952 44.404C91.624 43.812 91.46 43.16 91.46 42.448C91.46 41.824 91.564 41.264 91.772 40.768C91.98 40.264 92.3 39.832 92.732 39.472C93.164 39.104 93.724 38.804 94.412 38.572C94.932 38.404 95.54 38.252 96.236 38.116C96.94 37.98 97.7 37.856 98.516 37.744C99.34 37.624 100.2 37.496 101.096 37.36L100.064 37.948C100.072 37.052 99.872 36.392 99.464 35.968C99.056 35.544 98.368 35.332 97.4 35.332C96.816 35.332 96.252 35.468 95.708 35.74C95.164 36.012 94.784 36.48 94.568 37.144L91.928 36.316C92.248 35.22 92.856 34.34 93.752 33.676C94.656 33.012 95.872 32.68 97.4 32.68C98.552 32.68 99.564 32.868 100.436 33.244C101.316 33.62 101.968 34.236 102.392 35.092C102.624 35.548 102.764 36.016 102.812 36.496C102.86 36.968 102.884 37.484 102.884 38.044V46H100.352V43.192L100.772 43.648C100.188 44.584 99.504 45.272 98.72 45.712C97.944 46.144 96.972 46.36 95.804 46.36ZM96.38 44.056C97.036 44.056 97.596 43.94 98.06 43.708C98.524 43.476 98.892 43.192 99.164 42.856C99.444 42.52 99.632 42.204 99.728 41.908C99.88 41.54 99.964 41.12 99.98 40.648C100.004 40.168 100.016 39.78 100.016 39.484L100.904 39.748C100.032 39.884 99.284 40.004 98.66 40.108C98.036 40.212 97.5 40.312 97.052 40.408C96.604 40.496 96.208 40.596 95.864 40.708C95.528 40.828 95.244 40.968 95.012 41.128C94.78 41.288 94.6 41.472 94.472 41.68C94.352 41.888 94.292 42.132 94.292 42.412C94.292 42.732 94.372 43.016 94.532 43.264C94.692 43.504 94.924 43.696 95.228 43.84C95.54 43.984 95.924 44.056 96.38 44.056ZM114.972 46V39.76C114.972 39.352 114.944 38.9 114.888 38.404C114.832 37.908 114.7 37.432 114.492 36.976C114.292 36.512 113.988 36.132 113.58 35.836C113.18 35.54 112.636 35.392 111.948 35.392C111.58 35.392 111.216 35.452 110.856 35.572C110.496 35.692 110.168 35.9 109.872 36.196C109.584 36.484 109.352 36.884 109.176 37.396C109 37.9 108.912 38.548 108.912 39.34L107.196 38.608C107.196 37.504 107.408 36.504 107.832 35.608C108.264 34.712 108.896 34 109.728 33.472C110.56 32.936 111.584 32.668 112.8 32.668C113.76 32.668 114.552 32.828 115.176 33.148C115.8 33.468 116.296 33.876 116.664 34.372C117.032 34.868 117.304 35.396 117.48 35.956C117.656 36.516 117.768 37.048 117.816 37.552C117.872 38.048 117.9 38.452 117.9 38.764V46H114.972ZM105.984 46V33.04H108.564V37.06H108.912V46H105.984ZM124.536 46L119.832 33.04H122.724L125.988 42.436L129.24 33.04H132.144L127.44 46H124.536ZM137.195 46.36C136.259 46.36 135.467 46.184 134.819 45.832C134.171 45.472 133.679 44.996 133.343 44.404C133.015 43.812 132.851 43.16 132.851 42.448C132.851 41.824 132.955 41.264 133.163 40.768C133.371 40.264 133.691 39.832 134.123 39.472C134.555 39.104 135.115 38.804 135.803 38.572C136.323 38.404 136.931 38.252 137.627 38.116C138.331 37.98 139.091 37.856 139.907 37.744C140.731 37.624 141.591 37.496 142.487 37.36L141.455 37.948C141.463 37.052 141.263 36.392 140.855 35.968C140.447 35.544 139.759 35.332 138.791 35.332C138.207 35.332 137.643 35.468 137.099 35.74C136.555 36.012 136.175 36.48 135.959 37.144L133.319 36.316C133.639 35.22 134.247 34.34 135.143 33.676C136.047 33.012 137.263 32.68 138.791 32.68C139.943 32.68 140.955 32.868 141.827 33.244C142.707 33.62 143.359 34.236 143.783 35.092C144.015 35.548 144.155 36.016 144.203 36.496C144.251 36.968 144.275 37.484 144.275 38.044V46H141.743V43.192L142.163 43.648C141.579 44.584 140.895 45.272 140.111 45.712C139.335 46.144 138.363 46.36 137.195 46.36ZM137.771 44.056C138.427 44.056 138.987 43.94 139.451 43.708C139.915 43.476 140.283 43.192 140.555 42.856C140.835 42.52 141.023 42.204 141.119 41.908C141.271 41.54 141.355 41.12 141.371 40.648C141.395 40.168 141.407 39.78 141.407 39.484L142.295 39.748C141.423 39.884 140.675 40.004 140.051 40.108C139.427 40.212 138.891 40.312 138.443 40.408C137.995 40.496 137.599 40.596 137.255 40.708C136.919 40.828 136.635 40.968 136.403 41.128C136.171 41.288 135.991 41.472 135.863 41.68C135.743 41.888 135.683 42.132 135.683 42.412C135.683 42.732 135.763 43.016 135.923 43.264C136.083 43.504 136.315 43.696 136.619 43.84C136.931 43.984 137.315 44.056 137.771 44.056ZM152.403 46.36C150.803 46.36 149.503 46 148.503 45.28C147.503 44.56 146.895 43.548 146.679 42.244L149.631 41.788C149.783 42.428 150.119 42.932 150.639 43.3C151.159 43.668 151.815 43.852 152.607 43.852C153.303 43.852 153.839 43.716 154.215 43.444C154.599 43.164 154.791 42.784 154.791 42.304C154.791 42.008 154.719 41.772 154.575 41.596C154.439 41.412 154.135 41.236 153.663 41.068C153.191 40.9 152.467 40.688 151.491 40.432C150.403 40.144 149.539 39.836 148.899 39.508C148.259 39.172 147.799 38.776 147.519 38.32C147.239 37.864 147.099 37.312 147.099 36.664C147.099 35.856 147.311 35.152 147.735 34.552C148.159 33.952 148.751 33.492 149.511 33.172C150.271 32.844 151.167 32.68 152.199 32.68C153.207 32.68 154.099 32.836 154.875 33.148C155.659 33.46 156.291 33.904 156.771 34.48C157.251 35.056 157.547 35.732 157.659 36.508L154.707 37.036C154.635 36.484 154.383 36.048 153.951 35.728C153.527 35.408 152.959 35.228 152.247 35.188C151.567 35.148 151.019 35.252 150.603 35.5C150.187 35.74 149.979 36.08 149.979 36.52C149.979 36.768 150.063 36.98 150.231 37.156C150.399 37.332 150.735 37.508 151.239 37.684C151.751 37.86 152.511 38.076 153.519 38.332C154.551 38.596 155.375 38.9 155.991 39.244C156.615 39.58 157.063 39.984 157.335 40.456C157.615 40.928 157.755 41.5 157.755 42.172C157.755 43.476 157.279 44.5 156.327 45.244C155.383 45.988 154.075 46.36 152.403 46.36Z" fill="white"/>
<path fill-rule="evenodd" clip-rule="evenodd" d="M194.166 38.9084C194.393 38.4745 195.01 38.4745 195.161 38.9084L195.567 40.08C195.884 41.0023 196.384 41.8512 197.036 42.5759C197.688 43.3006 198.48 43.8864 199.364 44.298L200.357 44.762C200.764 44.952 200.712 45.5536 200.27 45.7436L199.127 46.2392C197.222 47.0698 195.649 48.5117 194.655 50.3369L194.062 51.4357C193.832 51.8569 193.23 51.8569 193.075 51.4357L192.675 50.3369C192.349 49.4404 191.849 48.6171 191.205 47.9139C190.561 47.2108 189.784 46.6417 188.919 46.2392L187.861 45.7436C187.453 45.5536 187.505 44.952 187.945 44.762L189.02 44.298C190.967 43.449 192.567 41.9618 193.555 40.0816L194.166 38.9084Z" fill="white"/>
<path d="M170.826 27.4756L170.686 29.0527L202.353 29.0527L202.493 27.4756L202.633 25.8985L170.966 25.8985L170.826 27.4756Z" fill="white"/>
<path d="M169.143 46.4004L169.002 47.9775H183.252L183.393 46.4004L183.533 44.8233H169.283L169.143 46.4004Z" fill="white"/>
<path d="M174.917 52.71L176.5 52.71L179.304 21.1677L177.721 21.1677L176.137 21.1677L173.334 52.71L174.917 52.71Z" fill="white"/>
<path d="M195.458 35.3613L197.041 35.3613L198.303 21.1673L196.72 21.1673L195.136 21.1673L193.875 35.3613L195.458 35.3613Z" fill="white"/>
</svg>
