<svg width="26" height="26" viewBox="0 0 26 26" fill="none" xmlns="http://www.w3.org/2000/svg">
<g clip-path="url(#clip0_4273_30)">
<path d="M14.5 2C15.0851 2.00003 15.6599 2.15408 16.1666 2.44668C16.6733 2.73927 17.094 3.16008 17.3865 3.66683C17.679 4.17357 17.8329 4.74838 17.8328 5.33348C17.8327 5.91857 17.6786 6.49334 17.386 7H20.333C21.253 7 22 7.747 22 8.667V11.167C22 12.087 21.253 12.833 20.333 12.833V18.667C20.333 19.551 19.9818 20.3987 19.3568 21.0238C18.7317 21.6488 17.884 22 17 22H7C6.11603 22 5.26827 21.6488 4.64321 21.0238C4.01815 20.3987 3.667 19.551 3.667 18.667V12.833L3.497 12.825C3.08652 12.7829 2.70624 12.5901 2.42971 12.2838C2.15319 11.9776 2.00008 11.5796 2 11.167V8.667C2 7.747 2.747 7 3.667 7H6.614C6.20101 6.28417 6.06869 5.44044 6.24272 4.63255C6.41675 3.82466 6.88471 3.11023 7.55579 2.62791C8.22687 2.1456 9.0532 1.9298 9.87442 2.02239C10.6956 2.11498 11.4532 2.50937 12 3.129C12.3126 2.77406 12.6973 2.48979 13.1283 2.29512C13.5594 2.10045 14.027 1.99984 14.5 2ZM5.333 18.667C5.333 19.587 6.08 20.333 7 20.333H17C17.92 20.333 18.667 19.587 18.667 18.667V12.833H5.333V18.667ZM3.667 11.167H20.333V8.667H3.667V11.167ZM14.5 3.667C13.58 3.667 12.833 4.413 12.833 5.333V7H14.5C14.9349 6.98935 15.3484 6.80909 15.6523 6.49772C15.9561 6.18636 16.1262 5.76855 16.1262 5.3335C16.1262 4.89845 15.9561 4.48065 15.6523 4.16928C15.3484 3.85791 14.9349 3.67765 14.5 3.667ZM9.5 3.667C9.27772 3.66155 9.05659 3.70063 8.84964 3.78193C8.64269 3.86324 8.45409 3.98512 8.29495 4.14041C8.13581 4.29569 8.00935 4.48125 7.923 4.68615C7.83666 4.89105 7.79217 5.11115 7.79217 5.3335C7.79217 5.55585 7.83666 5.77595 7.923 5.98085C8.00935 6.18575 8.13581 6.37131 8.29495 6.52659C8.45409 6.68188 8.64269 6.80376 8.84964 6.88507C9.05659 6.96637 9.27772 7.00545 9.5 7H11.167V5.333C11.167 4.413 10.42 3.667 9.5 3.667Z" fill="url(#paint0_linear_4273_30)"/>
<path d="M20.182 18C20.1812 18.7232 19.8935 19.4165 19.382 19.9278C18.8706 20.439 18.1772 20.7265 17.454 20.727H6.54598C5.8228 20.7265 5.12938 20.439 4.61793 19.9278C4.10647 19.4165 3.81877 18.7232 3.81798 18V11.637H2.90998C2.6688 11.6367 2.4376 11.5407 2.26716 11.3701C2.09671 11.1995 2.00098 10.9682 2.00098 10.727V8.91C2.00098 8.66883 2.09671 8.43752 2.26716 8.26689C2.4376 8.09626 2.6688 8.00027 2.90998 8H21.09C21.3313 8 21.5628 8.09587 21.7334 8.26653C21.9041 8.43719 22 8.66865 22 8.91V10.727C22 10.9683 21.9041 11.1998 21.7334 11.3705C21.5628 11.5411 21.3313 11.637 21.09 11.637H20.182V18Z" fill="#FF5255" fill-opacity="0.12"/>
<g filter="url(#filter0_d_4273_30)">
<path d="M16.1473 17.9873C16.0593 17.8345 16.0131 17.6612 16.0137 17.4849C16.0142 17.3086 16.0613 17.1355 16.1503 16.9833L17.3103 14.9933C17.3982 14.8431 17.5238 14.7184 17.6746 14.6316C17.8254 14.5448 17.9963 14.4988 18.1703 14.4983L20.4733 14.4883C20.6495 14.4876 20.8228 14.5335 20.9756 14.6213C21.1283 14.7091 21.2552 14.8357 21.3433 14.9883L23.6963 19.0623C23.8289 19.292 23.8648 19.5649 23.7962 19.8211C23.7276 20.0773 23.56 20.2957 23.3303 20.4283L19.8663 22.4283C19.6366 22.5609 19.3637 22.5968 19.1075 22.5282C18.8513 22.4595 18.6329 22.292 18.5003 22.0623L16.1473 17.9873Z" fill="#FF006E"/>
</g>
</g>
<defs>
<filter id="filter0_d_4273_30" x="10.0137" y="12.4883" width="15.8164" height="16.0742" filterUnits="userSpaceOnUse" color-interpolation-filters="sRGB">
<feFlood flood-opacity="0" result="BackgroundImageFix"/>
<feColorMatrix in="SourceAlpha" type="matrix" values="0 0 0 0 0 0 0 0 0 0 0 0 0 0 0 0 0 0 127 0" result="hardAlpha"/>
<feOffset dx="-2" dy="2"/>
<feGaussianBlur stdDeviation="2"/>
<feComposite in2="hardAlpha" operator="out"/>
<feColorMatrix type="matrix" values="0 0 0 0 0 0 0 0 0 0 0 0 0 0 0 0 0 0 0.25 0"/>
<feBlend mode="normal" in2="BackgroundImageFix" result="effect1_dropShadow_4273_30"/>
<feBlend mode="normal" in="SourceGraphic" in2="effect1_dropShadow_4273_30" result="shape"/>
</filter>
<linearGradient id="paint0_linear_4273_30" x1="2" y1="12" x2="22" y2="12" gradientUnits="userSpaceOnUse">
<stop stop-color="#FFA73C"/>
<stop offset="1" stop-color="#FF5255"/>
</linearGradient>
<clipPath id="clip0_4273_30">
<rect width="26" height="26" fill="white"/>
</clipPath>
</defs>
</svg>
