<svg width="312" height="102" viewBox="0 0 312 102" fill="none" xmlns="http://www.w3.org/2000/svg">
<rect y="12" width="312" height="90" rx="32" fill="#56504F"/>
<rect width="312" height="96" rx="32" fill="black"/>
<path d="M69.744 60.48C68.2507 60.48 66.848 60.2187 65.536 59.696C64.2347 59.1627 63.088 58.384 62.096 57.36C61.1147 56.336 60.3467 55.0827 59.792 53.6C59.2373 52.1067 58.96 50.4 58.96 48.48C58.96 45.9627 59.4293 43.8133 60.368 42.032C61.3067 40.24 62.592 38.8693 64.224 37.92C65.856 36.96 67.696 36.48 69.744 36.48C72.5813 36.48 74.8267 37.1413 76.48 38.464C78.144 39.776 79.2693 41.6213 79.856 44L75.92 44.624C75.4827 43.2587 74.768 42.1707 73.776 41.36C72.784 40.5387 71.52 40.128 69.984 40.128C68.4373 40.1067 67.152 40.4427 66.128 41.136C65.104 41.8293 64.3307 42.8053 63.808 44.064C63.296 45.3227 63.04 46.7947 63.04 48.48C63.04 50.1653 63.296 51.632 63.808 52.88C64.32 54.1173 65.088 55.0827 66.112 55.776C67.1467 56.4693 68.4373 56.8267 69.984 56.848C71.1467 56.8587 72.1653 56.6507 73.04 56.224C73.9147 55.7867 74.6293 55.1307 75.184 54.256C75.7387 53.3707 76.112 52.2667 76.304 50.944H72.24V47.92H80.4C80.4213 48.0907 80.4373 48.3413 80.448 48.672C80.4587 49.0027 80.464 49.2 80.464 49.264C80.464 51.44 80.032 53.376 79.168 55.072C78.3147 56.7573 77.088 58.08 75.488 59.04C73.888 60 71.9733 60.48 69.744 60.48ZM91.5335 60.48C89.7842 60.48 88.2482 60.1013 86.9255 59.344C85.6028 58.5867 84.5682 57.536 83.8215 56.192C83.0855 54.848 82.7175 53.3013 82.7175 51.552C82.7175 49.664 83.0802 48.0267 83.8055 46.64C84.5308 45.2427 85.5388 44.16 86.8295 43.392C88.1202 42.624 89.6135 42.24 91.3095 42.24C93.1015 42.24 94.6215 42.6613 95.8695 43.504C97.1282 44.336 98.0615 45.5147 98.6695 47.04C99.2775 48.5653 99.5068 50.3627 99.3575 52.432H95.5335V51.024C95.5228 49.1467 95.1922 47.776 94.5415 46.912C93.8908 46.048 92.8668 45.616 91.4695 45.616C89.8908 45.616 88.7175 46.1067 87.9495 47.088C87.1815 48.0587 86.7975 49.4827 86.7975 51.36C86.7975 53.1093 87.1815 54.464 87.9495 55.424C88.7175 56.384 89.8375 56.864 91.3095 56.864C92.2588 56.864 93.0748 56.656 93.7575 56.24C94.4508 55.8133 94.9842 55.2 95.3575 54.4L99.1655 55.552C98.5042 57.1093 97.4802 58.32 96.0935 59.184C94.7175 60.048 93.1975 60.48 91.5335 60.48ZM85.5815 52.432V49.52H97.4695V52.432H85.5815ZM113.056 60C111.914 60.2133 110.794 60.304 109.696 60.272C108.608 60.2507 107.632 60.0533 106.768 59.68C105.904 59.296 105.248 58.6933 104.799 57.872C104.405 57.1253 104.197 56.3627 104.176 55.584C104.154 54.8053 104.144 53.9253 104.144 52.944V37.92H107.984V52.72C107.984 53.4133 107.989 54.0213 108 54.544C108.021 55.0667 108.133 55.4933 108.336 55.824C108.72 56.464 109.333 56.8213 110.176 56.896C111.018 56.9707 111.978 56.928 113.056 56.768V60ZM101.008 45.744V42.72H113.056V45.744H101.008ZM130.01 60.48C128.836 60.48 127.743 60.24 126.73 59.76C125.716 59.2693 124.842 58.5973 124.106 57.744C123.38 56.8907 122.858 55.8987 122.538 54.768L126.25 53.776C126.399 54.3947 126.671 54.928 127.066 55.376C127.471 55.824 127.94 56.1707 128.474 56.416C129.018 56.6613 129.578 56.784 130.154 56.784C130.9 56.784 131.583 56.6027 132.202 56.24C132.82 55.8773 133.311 55.392 133.674 54.784C134.036 54.1653 134.218 53.4827 134.218 52.736C134.218 51.9893 134.031 51.312 133.658 50.704C133.295 50.0853 132.804 49.6 132.186 49.248C131.567 48.8853 130.89 48.704 130.154 48.704C129.268 48.704 128.532 48.864 127.946 49.184C127.37 49.504 126.927 49.8453 126.618 50.208L123.322 49.152L124.026 36.96H136.538V40.576H126.09L127.53 39.216L127.018 47.696L126.314 46.832C126.911 46.288 127.604 45.8827 128.394 45.616C129.183 45.3493 129.946 45.216 130.682 45.216C132.122 45.216 133.396 45.5467 134.506 46.208C135.626 46.8587 136.5 47.7493 137.13 48.88C137.77 50.0107 138.09 51.296 138.09 52.736C138.09 54.176 137.716 55.4827 136.97 56.656C136.223 57.8187 135.236 58.7467 134.01 59.44C132.794 60.1333 131.46 60.48 130.01 60.48ZM150.216 60.48C148.584 60.48 147.144 60.1333 145.896 59.44C144.648 58.736 143.672 57.76 142.968 56.512C142.274 55.264 141.928 53.824 141.928 52.192V44.768C141.928 43.136 142.274 41.696 142.968 40.448C143.672 39.2 144.648 38.2293 145.896 37.536C147.144 36.832 148.584 36.48 150.216 36.48C151.848 36.48 153.282 36.832 154.52 37.536C155.768 38.2293 156.744 39.2 157.448 40.448C158.152 41.696 158.503 43.136 158.503 44.768V52.192C158.503 53.824 158.152 55.264 157.448 56.512C156.744 57.76 155.768 58.736 154.52 59.44C153.282 60.1333 151.848 60.48 150.216 60.48ZM150.216 56.816C151.026 56.816 151.762 56.624 152.424 56.24C153.085 55.8453 153.608 55.3227 153.992 54.672C154.376 54.0107 154.568 53.2747 154.568 52.464V44.48C154.568 43.6587 154.376 42.9227 153.992 42.272C153.608 41.6107 153.085 41.088 152.424 40.704C151.762 40.3093 151.026 40.112 150.216 40.112C149.405 40.112 148.669 40.3093 148.008 40.704C147.346 41.088 146.824 41.6107 146.44 42.272C146.056 42.9227 145.864 43.6587 145.864 44.48V52.464C145.864 53.2747 146.056 54.0107 146.44 54.672C146.824 55.3227 147.346 55.8453 148.008 56.24C148.669 56.624 149.405 56.816 150.216 56.816ZM166.19 60L163.63 57.44L184.126 36.96L186.686 39.536L166.19 60ZM181.886 60.48C180.83 60.48 179.865 60.224 178.99 59.712C178.126 59.1893 177.433 58.496 176.91 57.632C176.387 56.7573 176.126 55.7867 176.126 54.72C176.126 53.6747 176.393 52.7147 176.926 51.84C177.459 50.9653 178.163 50.2667 179.038 49.744C179.913 49.2213 180.862 48.96 181.886 48.96C182.942 48.96 183.907 49.2213 184.782 49.744C185.657 50.256 186.35 50.9493 186.862 51.824C187.385 52.688 187.646 53.6533 187.646 54.72C187.646 55.7867 187.385 56.7573 186.862 57.632C186.35 58.496 185.657 59.1893 184.782 59.712C183.907 60.224 182.942 60.48 181.886 60.48ZM181.886 57.184C182.323 57.184 182.729 57.072 183.102 56.848C183.486 56.624 183.79 56.3253 184.014 55.952C184.238 55.5787 184.35 55.168 184.35 54.72C184.35 54.272 184.238 53.8613 184.014 53.488C183.79 53.1147 183.486 52.816 183.102 52.592C182.729 52.368 182.323 52.256 181.886 52.256C181.438 52.256 181.027 52.368 180.654 52.592C180.281 52.816 179.977 53.1147 179.742 53.488C179.518 53.8613 179.406 54.272 179.406 54.72C179.406 55.168 179.518 55.5787 179.742 55.952C179.977 56.3253 180.281 56.624 180.654 56.848C181.027 57.072 181.438 57.184 181.886 57.184ZM168.43 48C167.374 48 166.409 47.744 165.534 47.232C164.659 46.7093 163.961 46.016 163.438 45.152C162.926 44.2773 162.67 43.3067 162.67 42.24C162.67 41.1947 162.937 40.2347 163.47 39.36C164.003 38.4853 164.707 37.7867 165.582 37.264C166.457 36.7413 167.406 36.48 168.43 36.48C169.486 36.48 170.446 36.7413 171.31 37.264C172.185 37.776 172.883 38.4693 173.406 39.344C173.929 40.208 174.19 41.1733 174.19 42.24C174.19 43.3067 173.929 44.2773 173.406 45.152C172.883 46.016 172.185 46.7093 171.31 47.232C170.446 47.744 169.486 48 168.43 48ZM168.43 44.704C168.878 44.704 169.289 44.592 169.662 44.368C170.035 44.144 170.334 43.8453 170.558 43.472C170.782 43.0987 170.894 42.688 170.894 42.24C170.894 41.792 170.782 41.3813 170.558 41.008C170.334 40.6347 170.035 40.336 169.662 40.112C169.289 39.888 168.878 39.776 168.43 39.776C167.982 39.776 167.571 39.888 167.198 40.112C166.825 40.336 166.526 40.6347 166.302 41.008C166.078 41.3813 165.966 41.792 165.966 42.24C165.966 42.688 166.078 43.0987 166.302 43.472C166.526 43.8453 166.825 44.144 167.198 44.368C167.571 44.592 167.982 44.704 168.43 44.704ZM207.953 60.48C205.649 60.48 203.675 59.9787 202.033 58.976C200.39 57.9627 199.126 56.5547 198.241 54.752C197.366 52.9493 196.929 50.8587 196.929 48.48C196.929 46.1013 197.366 44.0107 198.241 42.208C199.126 40.4053 200.39 39.0027 202.033 38C203.675 36.9867 205.649 36.48 207.953 36.48C210.257 36.48 212.23 36.9867 213.873 38C215.526 39.0027 216.79 40.4053 217.665 42.208C218.55 44.0107 218.993 46.1013 218.993 48.48C218.993 50.8587 218.55 52.9493 217.665 54.752C216.79 56.5547 215.526 57.9627 213.873 58.976C212.23 59.9787 210.257 60.48 207.953 60.48ZM207.953 56.848C209.499 56.8587 210.785 56.5173 211.809 55.824C212.843 55.1307 213.617 54.1547 214.129 52.896C214.651 51.6373 214.913 50.1653 214.913 48.48C214.913 46.7947 214.651 45.3333 214.129 44.096C213.617 42.848 212.843 41.8773 211.809 41.184C210.785 40.4907 209.499 40.1333 207.953 40.112C206.406 40.1013 205.121 40.4427 204.097 41.136C203.073 41.8293 202.299 42.8053 201.777 44.064C201.265 45.3227 201.009 46.7947 201.009 48.48C201.009 50.1653 201.265 51.632 201.777 52.88C202.289 54.1173 203.057 55.0827 204.081 55.776C205.115 56.4693 206.406 56.8267 207.953 56.848ZM222.178 60V36.96H236.05V40.816H226.034V46.56H234.13V50.4H226.034V60H222.178ZM238.928 60V36.96H252.8V40.816H242.784V46.56H250.88V50.4H242.784V60H238.928Z" fill="white"/>
</svg>
