<svg width="323" height="42" viewBox="0 0 323 42" fill="none" xmlns="http://www.w3.org/2000/svg">
<path d="M9.0763 6.65987C9.8462 4.26681 10.2312 3.07029 10.9607 2.18483C11.6048 1.403 12.4364 0.796983 13.3779 0.423261C14.4442 0 15.7011 0 18.215 0H311.533C315.987 0 318.214 0 319.684 0.931244C320.971 1.74656 321.9 3.02105 322.282 4.49609C322.718 6.18087 322.036 8.30063 320.672 12.5401L313.337 35.3401C312.567 37.7332 312.182 38.9297 311.452 39.8152C310.808 40.597 309.977 41.203 309.035 41.5767C307.969 42 306.712 42 304.198 42H10.8797C6.42618 42 4.19942 42 2.7292 41.0688C1.442 40.2534 0.513208 38.979 0.131295 37.5039C-0.304923 35.8191 0.377052 33.6994 1.741 29.4599L9.0763 6.65987Z" fill="url(#paint0_linear_3925_44677)"/>
<defs>
<linearGradient id="paint0_linear_3925_44677" x1="-2.29346" y1="21" x2="324.707" y2="21" gradientUnits="userSpaceOnUse">
<stop stop-color="#FFA73C"/>
<stop offset="1" stop-color="#FF5255"/>
</linearGradient>
</defs>
</svg>
