<svg width="42" height="42" viewBox="0 0 42 42" fill="none" xmlns="http://www.w3.org/2000/svg">
<path d="M25.5393 34.6261C28.3953 34.8004 29.712 36.2158 29.3025 37.2448C28.8867 38.2738 25.9782 40.8631 21.0873 41.5498C16.2027 42.2428 11.3643 41.9278 9.51635 41.9278C7.67045 41.9278 5.49275 41.6737 6.61835 40.7371C9.24738 38.6604 12.2196 37.0598 15.4005 36.0079C19.6845 34.6261 22.6875 34.4518 25.5393 34.6261ZM35.697 22.3054C35.5017 23.5024 34.2207 26.56 30.5268 28.8847C27.5238 30.7621 24.1848 32.0767 20.6841 32.7655C18.0381 33.3115 15.5349 34.0486 16.3623 32.5387C17.1918 31.0309 19.9953 27.2845 24.0483 24.6511C28.0971 22.0177 30.237 21.7111 32.0388 21.3415C33.8385 20.974 35.8923 21.1042 35.697 22.3054ZM34.4538 9.89445C35.9385 9.89445 35.8398 11.2301 35.4408 12.3725C35.0439 13.517 33.3429 16.9232 30.405 18.9916C28.4457 20.3692 25.9635 21.5683 22.9605 22.5784C23.6304 18.874 25.0668 15.9634 27.2676 13.8425C30.5667 10.6568 32.9649 9.89445 34.4538 9.89445ZM27.78 0.0118578C28.2585 -0.0359128 28.7388 0.0819515 29.1408 0.345758C29.3209 0.463149 29.4739 0.617474 29.5897 0.798498C29.7056 0.979522 29.7816 1.18311 29.8128 1.39576L29.8758 1.98586C30.0381 3.89628 29.734 5.81754 28.9896 7.58445C27.8493 10.2998 26.1378 12.4565 23.8593 14.042C23.4687 12.866 23.1915 11.6564 23.0319 10.43C22.8807 8.99145 22.8807 7.68735 23.8593 4.40086C24.2961 2.93506 25.2411 1.61626 26.6901 0.433958C27.0041 0.187472 27.3841 0.039824 27.7821 0.00975775L27.78 0.0118578Z" fill="white"/>
</svg>
