<svg width="42" height="42" viewBox="0 0 42 42" fill="none" xmlns="http://www.w3.org/2000/svg">
<path d="M16.4607 34.6261C13.6047 34.8004 12.288 36.2158 12.6975 37.2448C13.1133 38.2738 16.0218 40.8631 20.9127 41.5498C25.7973 42.2428 30.6357 41.9278 32.4837 41.9278C34.3296 41.9278 36.5072 41.6737 35.3817 40.7371C32.7526 38.6604 29.7804 37.0598 26.5995 36.0079C22.3155 34.6261 19.3125 34.4518 16.4607 34.6261ZM6.30297 22.3054C6.49827 23.5024 7.77927 26.56 11.4732 28.8847C14.4762 30.7621 17.8152 32.0767 21.3159 32.7655C23.9619 33.3115 26.4651 34.0486 25.6377 32.5387C24.8082 31.0309 22.0047 27.2845 17.9517 24.6511C13.9029 22.0177 11.763 21.7111 9.96117 21.3415C8.16147 20.974 6.10767 21.1042 6.30297 22.3054ZM7.54617 9.89445C6.06147 9.89445 6.16017 11.2301 6.55917 12.3725C6.95607 13.517 8.65707 16.9232 11.595 18.9916C13.5543 20.3692 16.0365 21.5683 19.0395 22.5784C18.3696 18.874 16.9332 15.9634 14.7324 13.8425C11.4333 10.6568 9.03507 9.89445 7.54617 9.89445ZM14.22 0.0118578C13.7415 -0.0359128 13.2612 0.0819515 12.8592 0.345758C12.6791 0.463149 12.5261 0.617474 12.4103 0.798498C12.2944 0.979522 12.2184 1.18311 12.1872 1.39576L12.1242 1.98586C11.9619 3.89628 12.266 5.81754 13.0104 7.58445C14.1507 10.2998 15.8622 12.4565 18.1407 14.042C18.5313 12.866 18.8085 11.6564 18.9681 10.43C19.1193 8.99145 19.1193 7.68735 18.1407 4.40086C17.7039 2.93506 16.7589 1.61626 15.3099 0.433958C14.9959 0.187472 14.6159 0.039824 14.2179 0.00975775L14.22 0.0118578Z" fill="white"/>
</svg>
