<svg width="412" height="102" viewBox="0 0 412 102" fill="none" xmlns="http://www.w3.org/2000/svg">
<rect y="12" width="412" height="90" rx="32" fill="url(#paint0_linear_3877_54)" fill-opacity="0.86"/>
<rect width="412" height="96" rx="32" fill="url(#paint1_linear_3877_54)"/>
<path fill-rule="evenodd" clip-rule="evenodd" d="M79.0084 36.314C79.3381 35.5529 80.4184 35.5528 80.7481 36.314L81.9153 39.0142C83.3416 42.3104 85.9465 44.956 89.2195 46.4346L91.6396 47.5284C92.383 47.8642 92.383 48.9203 91.6396 49.2561L89.1 50.4029C85.8987 51.8489 83.3339 54.4134 81.888 57.6148L80.7413 60.1543C80.4054 60.8975 79.3493 60.8977 79.0135 60.1543L77.8667 57.6148C77.1704 56.0729 76.2117 54.6818 75.0504 53.4894C76.0532 53.6031 77.0967 53.6842 78.171 53.7251C78.1735 53.7251 78.177 53.7249 78.1794 53.7251C78.8871 53.7249 79.4524 53.1835 79.4527 52.4758C79.4527 51.812 78.9475 51.2359 78.3009 51.1668L78.171 51.16L76.8311 51.0882C73.8208 50.8775 71.1061 50.3571 68.9322 49.6252L68.1153 49.2561C67.3724 48.9203 67.3724 47.8642 68.1153 47.5284L70.5352 46.4346C73.8086 44.9562 76.413 42.3106 77.8394 39.0142L79.0084 36.314Z" fill="white"/>
<path d="M117.744 60.48C116.251 60.48 114.848 60.2187 113.536 59.696C112.235 59.1627 111.088 58.384 110.096 57.36C109.115 56.336 108.347 55.0827 107.792 53.6C107.237 52.1067 106.96 50.4 106.96 48.48C106.96 45.9627 107.429 43.8133 108.368 42.032C109.307 40.24 110.592 38.8693 112.224 37.92C113.856 36.96 115.696 36.48 117.744 36.48C120.581 36.48 122.827 37.1413 124.48 38.464C126.144 39.776 127.269 41.6213 127.856 44L123.92 44.624C123.483 43.2587 122.768 42.1707 121.776 41.36C120.784 40.5387 119.52 40.128 117.984 40.128C116.437 40.1067 115.152 40.4427 114.128 41.136C113.104 41.8293 112.331 42.8053 111.808 44.064C111.296 45.3227 111.04 46.7947 111.04 48.48C111.04 50.1653 111.296 51.632 111.808 52.88C112.32 54.1173 113.088 55.0827 114.112 55.776C115.147 56.4693 116.437 56.8267 117.984 56.848C119.147 56.8587 120.165 56.6507 121.04 56.224C121.915 55.7867 122.629 55.1307 123.184 54.256C123.739 53.3707 124.112 52.2667 124.304 50.944H120.24V47.92H128.4C128.421 48.0907 128.437 48.3413 128.448 48.672C128.459 49.0027 128.464 49.2 128.464 49.264C128.464 51.44 128.032 53.376 127.168 55.072C126.315 56.7573 125.088 58.08 123.488 59.04C121.888 60 119.973 60.48 117.744 60.48ZM139.534 60.48C137.784 60.48 136.248 60.1013 134.926 59.344C133.603 58.5867 132.568 57.536 131.822 56.192C131.086 54.848 130.718 53.3013 130.718 51.552C130.718 49.664 131.08 48.0267 131.806 46.64C132.531 45.2427 133.539 44.16 134.83 43.392C136.12 42.624 137.614 42.24 139.31 42.24C141.102 42.24 142.622 42.6613 143.87 43.504C145.128 44.336 146.062 45.5147 146.67 47.04C147.278 48.5653 147.507 50.3627 147.358 52.432H143.534V51.024C143.523 49.1467 143.192 47.776 142.542 46.912C141.891 46.048 140.867 45.616 139.47 45.616C137.891 45.616 136.718 46.1067 135.95 47.088C135.182 48.0587 134.798 49.4827 134.798 51.36C134.798 53.1093 135.182 54.464 135.95 55.424C136.718 56.384 137.838 56.864 139.31 56.864C140.259 56.864 141.075 56.656 141.758 56.24C142.451 55.8133 142.984 55.2 143.358 54.4L147.166 55.552C146.504 57.1093 145.48 58.32 144.094 59.184C142.718 60.048 141.198 60.48 139.534 60.48ZM133.582 52.432V49.52H145.47V52.432H133.582ZM161.056 60C159.914 60.2133 158.794 60.304 157.696 60.272C156.608 60.2507 155.632 60.0533 154.768 59.68C153.904 59.296 153.248 58.6933 152.799 57.872C152.405 57.1253 152.197 56.3627 152.176 55.584C152.154 54.8053 152.144 53.9253 152.144 52.944V37.92H155.984V52.72C155.984 53.4133 155.989 54.0213 156 54.544C156.021 55.0667 156.133 55.4933 156.336 55.824C156.72 56.464 157.333 56.8213 158.176 56.896C159.018 56.9707 159.978 56.928 161.056 56.768V60ZM149.008 45.744V42.72H161.056V45.744H149.008ZM171.178 60V36.96H185.05V40.816H175.034V46.56H183.13V50.4H175.034V60H171.178ZM187.928 60V42.72H191.336V46.928L190.92 46.384C191.133 45.808 191.416 45.2853 191.768 44.816C192.13 44.336 192.562 43.9413 193.064 43.632C193.49 43.344 193.96 43.12 194.472 42.96C194.994 42.7893 195.528 42.688 196.072 42.656C196.616 42.6133 197.144 42.6347 197.656 42.72V46.32C197.144 46.1707 196.552 46.1227 195.88 46.176C195.218 46.2293 194.621 46.416 194.088 46.736C193.554 47.024 193.117 47.392 192.776 47.84C192.445 48.288 192.2 48.8 192.04 49.376C191.88 49.9413 191.8 50.5547 191.8 51.216V60H187.928ZM208.252 60.48C206.503 60.48 204.967 60.1013 203.644 59.344C202.322 58.5867 201.287 57.536 200.54 56.192C199.804 54.848 199.436 53.3013 199.436 51.552C199.436 49.664 199.799 48.0267 200.524 46.64C201.25 45.2427 202.258 44.16 203.548 43.392C204.839 42.624 206.332 42.24 208.028 42.24C209.82 42.24 211.34 42.6613 212.588 43.504C213.847 44.336 214.78 45.5147 215.388 47.04C215.996 48.5653 216.226 50.3627 216.076 52.432H212.252V51.024C212.242 49.1467 211.911 47.776 211.26 46.912C210.61 46.048 209.586 45.616 208.188 45.616C206.61 45.616 205.436 46.1067 204.668 47.088C203.9 48.0587 203.516 49.4827 203.516 51.36C203.516 53.1093 203.9 54.464 204.668 55.424C205.436 56.384 206.556 56.864 208.028 56.864C208.978 56.864 209.794 56.656 210.476 56.24C211.17 55.8133 211.703 55.2 212.076 54.4L215.884 55.552C215.223 57.1093 214.199 58.32 212.812 59.184C211.436 60.048 209.916 60.48 208.252 60.48ZM202.3 52.432V49.52H214.188V52.432H202.3ZM227.502 60.48C225.753 60.48 224.217 60.1013 222.894 59.344C221.572 58.5867 220.537 57.536 219.79 56.192C219.054 54.848 218.686 53.3013 218.686 51.552C218.686 49.664 219.049 48.0267 219.774 46.64C220.5 45.2427 221.508 44.16 222.798 43.392C224.089 42.624 225.582 42.24 227.278 42.24C229.07 42.24 230.59 42.6613 231.838 43.504C233.097 44.336 234.03 45.5147 234.638 47.04C235.246 48.5653 235.476 50.3627 235.326 52.432H231.502V51.024C231.492 49.1467 231.161 47.776 230.51 46.912C229.86 46.048 228.836 45.616 227.438 45.616C225.86 45.616 224.686 46.1067 223.918 47.088C223.15 48.0587 222.766 49.4827 222.766 51.36C222.766 53.1093 223.15 54.464 223.918 55.424C224.686 56.384 225.806 56.864 227.278 56.864C228.228 56.864 229.044 56.656 229.726 56.24C230.42 55.8133 230.953 55.2 231.326 54.4L235.134 55.552C234.473 57.1093 233.449 58.32 232.062 59.184C230.686 60.048 229.166 60.48 227.502 60.48ZM221.55 52.432V49.52H233.438V52.432H221.55ZM252.807 60.48C251.025 60.48 249.505 60.0853 248.247 59.296C246.988 58.496 246.023 57.408 245.351 56.032C244.689 54.656 244.353 53.0987 244.343 51.36C244.353 49.5893 244.7 48.0213 245.383 46.656C246.076 45.28 247.057 44.2027 248.327 43.424C249.596 42.6347 251.105 42.24 252.855 42.24C254.817 42.24 256.476 42.736 257.831 43.728C259.196 44.7093 260.087 46.0533 260.503 47.76L256.663 48.8C256.364 47.872 255.868 47.152 255.175 46.64C254.481 46.1173 253.692 45.856 252.807 45.856C251.804 45.856 250.977 46.096 250.327 46.576C249.676 47.0453 249.196 47.696 248.887 48.528C248.577 49.36 248.423 50.304 248.423 51.36C248.423 53.0027 248.791 54.3307 249.527 55.344C250.263 56.3573 251.356 56.864 252.807 56.864C253.831 56.864 254.636 56.6293 255.223 56.16C255.82 55.6907 256.268 55.0133 256.567 54.128L260.503 55.008C259.969 56.768 259.036 58.1227 257.703 59.072C256.369 60.0107 254.737 60.48 252.807 60.48ZM263.709 60V42.72H267.117V46.928L266.701 46.384C266.914 45.808 267.197 45.2853 267.549 44.816C267.911 44.336 268.343 43.9413 268.845 43.632C269.271 43.344 269.741 43.12 270.253 42.96C270.775 42.7893 271.309 42.688 271.853 42.656C272.397 42.6133 272.925 42.6347 273.437 42.72V46.32C272.925 46.1707 272.333 46.1227 271.661 46.176C270.999 46.2293 270.402 46.416 269.869 46.736C269.335 47.024 268.898 47.392 268.557 47.84C268.226 48.288 267.981 48.8 267.821 49.376C267.661 49.9413 267.581 50.5547 267.581 51.216V60H263.709ZM284.034 60.48C282.284 60.48 280.748 60.1013 279.426 59.344C278.103 58.5867 277.068 57.536 276.322 56.192C275.586 54.848 275.218 53.3013 275.218 51.552C275.218 49.664 275.58 48.0267 276.306 46.64C277.031 45.2427 278.039 44.16 279.33 43.392C280.62 42.624 282.114 42.24 283.81 42.24C285.602 42.24 287.122 42.6613 288.37 43.504C289.628 44.336 290.562 45.5147 291.17 47.04C291.778 48.5653 292.007 50.3627 291.858 52.432H288.034V51.024C288.023 49.1467 287.692 47.776 287.042 46.912C286.391 46.048 285.367 45.616 283.97 45.616C282.391 45.616 281.218 46.1067 280.45 47.088C279.682 48.0587 279.298 49.4827 279.298 51.36C279.298 53.1093 279.682 54.464 280.45 55.424C281.218 56.384 282.338 56.864 283.81 56.864C284.759 56.864 285.575 56.656 286.258 56.24C286.951 55.8133 287.484 55.2 287.858 54.4L291.666 55.552C291.004 57.1093 289.98 58.32 288.594 59.184C287.218 60.048 285.698 60.48 284.034 60.48ZM278.082 52.432V49.52H289.97V52.432H278.082ZM302.356 60.48C300.766 60.48 299.38 60.08 298.196 59.28C297.012 58.48 296.094 57.392 295.444 56.016C294.793 54.64 294.468 53.088 294.468 51.36C294.468 49.6107 294.793 48.0533 295.444 46.688C296.105 45.312 297.038 44.2293 298.244 43.44C299.449 42.64 300.868 42.24 302.5 42.24C304.142 42.24 305.518 42.64 306.628 43.44C307.748 44.2293 308.596 45.312 309.172 46.688C309.748 48.064 310.036 49.6213 310.036 51.36C310.036 53.0773 309.748 54.6293 309.172 56.016C308.596 57.392 307.737 58.48 306.596 59.28C305.454 60.08 304.041 60.48 302.356 60.48ZM302.948 57.024C303.982 57.024 304.814 56.7893 305.444 56.32C306.084 55.84 306.548 55.1733 306.836 54.32C307.134 53.4667 307.284 52.48 307.284 51.36C307.284 50.2293 307.134 49.2427 306.836 48.4C306.548 47.5467 306.094 46.8853 305.476 46.416C304.857 45.936 304.057 45.696 303.076 45.696C302.041 45.696 301.188 45.952 300.516 46.464C299.844 46.9653 299.348 47.648 299.028 48.512C298.708 49.3653 298.548 50.3147 298.548 51.36C298.548 52.416 298.702 53.376 299.012 54.24C299.332 55.0933 299.817 55.7707 300.468 56.272C301.118 56.7733 301.945 57.024 302.948 57.024ZM307.284 60V47.872H306.804V36.96H310.692V60H307.284ZM315.498 40.096V36.56H319.354V40.096H315.498ZM315.498 60V42.72H319.354V60H315.498ZM334.274 60C333.133 60.2133 332.013 60.304 330.914 60.272C329.826 60.2507 328.85 60.0533 327.986 59.68C327.122 59.296 326.466 58.6933 326.018 57.872C325.624 57.1253 325.416 56.3627 325.394 55.584C325.373 54.8053 325.362 53.9253 325.362 52.944V37.92H329.202V52.72C329.202 53.4133 329.208 54.0213 329.218 54.544C329.24 55.0667 329.352 55.4933 329.554 55.824C329.938 56.464 330.552 56.8213 331.394 56.896C332.237 56.9707 333.197 56.928 334.274 56.768V60ZM322.226 45.744V42.72H334.274V45.744H322.226ZM344.662 60.48C342.529 60.48 340.795 60 339.462 59.04C338.129 58.08 337.318 56.7307 337.03 54.992L340.966 54.384C341.169 55.2373 341.617 55.9093 342.31 56.4C343.003 56.8907 343.878 57.136 344.934 57.136C345.862 57.136 346.577 56.9547 347.078 56.592C347.59 56.2187 347.846 55.712 347.846 55.072C347.846 54.6773 347.75 54.3627 347.558 54.128C347.377 53.8827 346.971 53.648 346.342 53.424C345.713 53.2 344.747 52.9173 343.446 52.576C341.995 52.192 340.843 51.7813 339.99 51.344C339.137 50.896 338.523 50.368 338.15 49.76C337.777 49.152 337.59 48.416 337.59 47.552C337.59 46.4747 337.873 45.536 338.438 44.736C339.003 43.936 339.793 43.3227 340.806 42.896C341.819 42.4587 343.014 42.24 344.39 42.24C345.734 42.24 346.923 42.448 347.958 42.864C349.003 43.28 349.846 43.872 350.486 44.64C351.126 45.408 351.521 46.3093 351.67 47.344L347.734 48.048C347.638 47.312 347.302 46.7307 346.726 46.304C346.161 45.8773 345.403 45.6373 344.454 45.584C343.547 45.5307 342.817 45.6693 342.262 46C341.707 46.32 341.43 46.7733 341.43 47.36C341.43 47.6907 341.542 47.9733 341.766 48.208C341.99 48.4427 342.438 48.6773 343.11 48.912C343.793 49.1467 344.806 49.4347 346.15 49.776C347.526 50.128 348.625 50.5333 349.446 50.992C350.278 51.44 350.875 51.9787 351.238 52.608C351.611 53.2373 351.798 54 351.798 54.896C351.798 56.6347 351.163 58 349.894 58.992C348.635 59.984 346.891 60.48 344.662 60.48Z" fill="white"/>
<defs>
<linearGradient id="paint0_linear_3877_54" x1="-7.25578e-07" y1="90.4459" x2="411.838" y2="79.8825" gradientUnits="userSpaceOnUse">
<stop stop-color="#A94C3C"/>
<stop offset="1" stop-color="#A95B3C"/>
</linearGradient>
<linearGradient id="paint1_linear_3877_54" x1="206.958" y1="96" x2="206.958" y2="-3.39985e-06" gradientUnits="userSpaceOnUse">
<stop stop-color="#FFA73C"/>
<stop offset="1" stop-color="#FF5255"/>
</linearGradient>
</defs>
</svg>
