<svg width="338" height="80" viewBox="0 0 338 80" fill="none" xmlns="http://www.w3.org/2000/svg">
<rect y="6" width="338" height="74" rx="20" fill="#56504F"/>
<rect width="338" height="74" rx="20" fill="black"/>
<path d="M40.808 46.36C39.688 46.36 38.636 46.164 37.652 45.772C36.676 45.372 35.816 44.788 35.072 44.02C34.336 43.252 33.76 42.312 33.344 41.2C32.928 40.08 32.72 38.8 32.72 37.36C32.72 35.472 33.072 33.86 33.776 32.524C34.48 31.18 35.444 30.152 36.668 29.44C37.892 28.72 39.272 28.36 40.808 28.36C42.936 28.36 44.62 28.856 45.86 29.848C47.108 30.832 47.952 32.216 48.392 34L45.44 34.468C45.112 33.444 44.576 32.628 43.832 32.02C43.088 31.404 42.14 31.096 40.988 31.096C39.828 31.08 38.864 31.332 38.096 31.852C37.328 32.372 36.748 33.104 36.356 34.048C35.972 34.992 35.78 36.096 35.78 37.36C35.78 38.624 35.972 39.724 36.356 40.66C36.74 41.588 37.316 42.312 38.084 42.832C38.86 43.352 39.828 43.62 40.988 43.636C41.86 43.644 42.624 43.488 43.28 43.168C43.936 42.84 44.472 42.348 44.888 41.692C45.304 41.028 45.584 40.2 45.728 39.208H42.68V36.94H48.8C48.816 37.068 48.828 37.256 48.836 37.504C48.844 37.752 48.848 37.9 48.848 37.948C48.848 39.58 48.524 41.032 47.876 42.304C47.236 43.568 46.316 44.56 45.116 45.28C43.916 46 42.48 46.36 40.808 46.36ZM57.1501 46.36C55.8381 46.36 54.6861 46.076 53.6941 45.508C52.7021 44.94 51.9261 44.152 51.3661 43.144C50.8141 42.136 50.5381 40.976 50.5381 39.664C50.5381 38.248 50.8101 37.02 51.3541 35.98C51.8981 34.932 52.6541 34.12 53.6221 33.544C54.5901 32.968 55.7101 32.68 56.9821 32.68C58.3261 32.68 59.4661 32.996 60.4021 33.628C61.3461 34.252 62.0461 35.136 62.5021 36.28C62.9581 37.424 63.1301 38.772 63.0181 40.324H60.1501V39.268C60.1421 37.86 59.8941 36.832 59.4061 36.184C58.9181 35.536 58.1501 35.212 57.1021 35.212C55.9181 35.212 55.0381 35.58 54.4621 36.316C53.8861 37.044 53.5981 38.112 53.5981 39.52C53.5981 40.832 53.8861 41.848 54.4621 42.568C55.0381 43.288 55.8781 43.648 56.9821 43.648C57.6941 43.648 58.3061 43.492 58.8181 43.18C59.3381 42.86 59.7381 42.4 60.0181 41.8L62.8741 42.664C62.3781 43.832 61.6101 44.74 60.5701 45.388C59.5381 46.036 58.3981 46.36 57.1501 46.36ZM52.6861 40.324V38.14H61.6021V40.324H52.6861ZM73.2916 46C72.4356 46.16 71.5956 46.228 70.7716 46.204C69.9556 46.188 69.2236 46.04 68.5756 45.76C67.9276 45.472 67.4356 45.02 67.0996 44.404C66.8036 43.844 66.6476 43.272 66.6316 42.688C66.6156 42.104 66.6076 41.444 66.6076 40.708V29.44H69.4876V40.54C69.4876 41.06 69.4916 41.516 69.4996 41.908C69.5156 42.3 69.5996 42.62 69.7516 42.868C70.0396 43.348 70.4996 43.616 71.1316 43.672C71.7636 43.728 72.4836 43.696 73.2916 43.576V46ZM64.2556 35.308V33.04H73.2916V35.308H64.2556ZM80.8831 46V28.72H87.7351C88.9031 28.72 89.8591 28.956 90.6031 29.428C91.3551 29.892 91.9111 30.488 92.2711 31.216C92.6391 31.944 92.8231 32.696 92.8231 33.472C92.8231 34.424 92.5951 35.232 92.1391 35.896C91.6911 36.56 91.0791 37.008 90.3031 37.24V36.64C91.3911 36.888 92.2151 37.404 92.7751 38.188C93.3431 38.972 93.6271 39.864 93.6271 40.864C93.6271 41.888 93.4311 42.784 93.0391 43.552C92.6471 44.32 92.0631 44.92 91.2871 45.352C90.5191 45.784 89.5671 46 88.4311 46H80.8831ZM83.8111 43.276H88.0711C88.5751 43.276 89.0271 43.176 89.4271 42.976C89.8271 42.768 90.1391 42.48 90.3631 42.112C90.5951 41.736 90.7111 41.292 90.7111 40.78C90.7111 40.316 90.6111 39.9 90.4111 39.532C90.2111 39.164 89.9191 38.872 89.5351 38.656C89.1511 38.432 88.6911 38.32 88.1551 38.32H83.8111V43.276ZM83.8111 35.62H87.6991C88.1151 35.62 88.4871 35.54 88.8151 35.38C89.1431 35.22 89.4031 34.984 89.5951 34.672C89.7871 34.36 89.8831 33.976 89.8831 33.52C89.8831 32.92 89.6911 32.42 89.3071 32.02C88.9231 31.62 88.3871 31.42 87.6991 31.42H83.8111V35.62ZM100.884 46.372C99.9238 46.372 99.1318 46.212 98.5078 45.892C97.8838 45.572 97.3878 45.164 97.0198 44.668C96.6518 44.172 96.3798 43.644 96.2038 43.084C96.0278 42.524 95.9118 41.996 95.8558 41.5C95.8078 40.996 95.7838 40.588 95.7838 40.276V33.04H98.7118V39.28C98.7118 39.68 98.7398 40.132 98.7958 40.636C98.8518 41.132 98.9798 41.612 99.1798 42.076C99.3878 42.532 99.6918 42.908 100.092 43.204C100.5 43.5 101.048 43.648 101.736 43.648C102.104 43.648 102.468 43.588 102.828 43.468C103.188 43.348 103.512 43.144 103.8 42.856C104.096 42.56 104.332 42.156 104.508 41.644C104.684 41.132 104.772 40.484 104.772 39.7L106.488 40.432C106.488 41.536 106.272 42.536 105.84 43.432C105.416 44.328 104.788 45.044 103.956 45.58C103.124 46.108 102.1 46.372 100.884 46.372ZM105.12 46V41.98H104.772V33.04H107.676V46H105.12ZM109.847 46V45.604L116.711 35.572H110.543V33.04H121.211V33.448L114.371 43.468H120.923V46H109.847ZM122.644 46V45.604L129.508 35.572H123.34V33.04H134.008V33.448L127.168 43.468H133.72V46H122.644ZM140.529 46L135.081 28.72H138.057L142.617 43.192L147.237 28.72H150.213L144.765 46H140.529ZM151.787 31.072V28.42H154.679V31.072H151.787ZM151.787 46V33.04H154.679V46H151.787ZM163.47 46.36C162.278 46.36 161.238 46.06 160.35 45.46C159.462 44.86 158.774 44.044 158.286 43.012C157.798 41.98 157.554 40.816 157.554 39.52C157.554 38.208 157.798 37.04 158.286 36.016C158.782 34.984 159.482 34.172 160.386 33.58C161.29 32.98 162.354 32.68 163.578 32.68C164.81 32.68 165.842 32.98 166.674 33.58C167.514 34.172 168.15 34.984 168.582 36.016C169.014 37.048 169.23 38.216 169.23 39.52C169.23 40.808 169.014 41.972 168.582 43.012C168.15 44.044 167.506 44.86 166.65 45.46C165.794 46.06 164.734 46.36 163.47 46.36ZM163.914 43.768C164.69 43.768 165.314 43.592 165.786 43.24C166.266 42.88 166.614 42.38 166.83 41.74C167.054 41.1 167.166 40.36 167.166 39.52C167.166 38.672 167.054 37.932 166.83 37.3C166.614 36.66 166.274 36.164 165.81 35.812C165.346 35.452 164.746 35.272 164.01 35.272C163.234 35.272 162.594 35.464 162.09 35.848C161.586 36.224 161.214 36.736 160.974 37.384C160.734 38.024 160.614 38.736 160.614 39.52C160.614 40.312 160.73 41.032 160.962 41.68C161.202 42.32 161.566 42.828 162.054 43.204C162.542 43.58 163.162 43.768 163.914 43.768ZM167.166 46V36.904H166.806V28.72H169.722V46H167.166ZM178.978 46.36C177.666 46.36 176.514 46.076 175.522 45.508C174.53 44.94 173.754 44.152 173.194 43.144C172.642 42.136 172.366 40.976 172.366 39.664C172.366 38.248 172.638 37.02 173.182 35.98C173.726 34.932 174.482 34.12 175.45 33.544C176.418 32.968 177.538 32.68 178.81 32.68C180.154 32.68 181.294 32.996 182.23 33.628C183.174 34.252 183.874 35.136 184.33 36.28C184.786 37.424 184.958 38.772 184.846 40.324H181.978V39.268C181.97 37.86 181.722 36.832 181.234 36.184C180.746 35.536 179.978 35.212 178.93 35.212C177.746 35.212 176.866 35.58 176.29 36.316C175.714 37.044 175.426 38.112 175.426 39.52C175.426 40.832 175.714 41.848 176.29 42.568C176.866 43.288 177.706 43.648 178.81 43.648C179.522 43.648 180.134 43.492 180.646 43.18C181.166 42.86 181.566 42.4 181.846 41.8L184.702 42.664C184.206 43.832 183.438 44.74 182.398 45.388C181.366 46.036 180.226 46.36 178.978 46.36ZM174.514 40.324V38.14H183.43V40.324H174.514ZM193.248 46.36C191.952 46.36 190.82 46.068 189.852 45.484C188.884 44.9 188.132 44.096 187.596 43.072C187.068 42.04 186.804 40.856 186.804 39.52C186.804 38.16 187.076 36.968 187.62 35.944C188.164 34.92 188.92 34.12 189.888 33.544C190.856 32.968 191.976 32.68 193.248 32.68C194.552 32.68 195.688 32.972 196.656 33.556C197.624 34.14 198.376 34.948 198.912 35.98C199.448 37.004 199.716 38.184 199.716 39.52C199.716 40.864 199.444 42.052 198.9 43.084C198.364 44.108 197.612 44.912 196.644 45.496C195.676 46.072 194.544 46.36 193.248 46.36ZM193.248 43.648C194.4 43.648 195.256 43.264 195.816 42.496C196.376 41.728 196.656 40.736 196.656 39.52C196.656 38.264 196.372 37.264 195.804 36.52C195.236 35.768 194.384 35.392 193.248 35.392C192.472 35.392 191.832 35.568 191.328 35.92C190.832 36.264 190.464 36.748 190.224 37.372C189.984 37.988 189.864 38.704 189.864 39.52C189.864 40.776 190.148 41.78 190.716 42.532C191.292 43.276 192.136 43.648 193.248 43.648ZM207.164 46V28.72H209.768L215.744 40.96L221.72 28.72H224.324V46H221.624V34.924L216.32 46H215.168L209.876 34.924V46H207.164ZM235.004 46.36C233.276 46.36 231.796 45.984 230.564 45.232C229.332 44.472 228.384 43.416 227.72 42.064C227.064 40.712 226.736 39.144 226.736 37.36C226.736 35.576 227.064 34.008 227.72 32.656C228.384 31.304 229.332 30.252 230.564 29.5C231.796 28.74 233.276 28.36 235.004 28.36C236.996 28.36 238.656 28.86 239.984 29.86C241.312 30.852 242.244 32.192 242.78 33.88L239.864 34.684C239.528 33.556 238.956 32.676 238.148 32.044C237.34 31.404 236.292 31.084 235.004 31.084C233.844 31.084 232.876 31.344 232.1 31.864C231.332 32.384 230.752 33.116 230.36 34.06C229.976 34.996 229.78 36.096 229.772 37.36C229.772 38.624 229.964 39.728 230.348 40.672C230.74 41.608 231.324 42.336 232.1 42.856C232.876 43.376 233.844 43.636 235.004 43.636C236.292 43.636 237.34 43.316 238.148 42.676C238.956 42.036 239.528 41.156 239.864 40.036L242.78 40.84C242.244 42.528 241.312 43.872 239.984 44.872C238.656 45.864 236.996 46.36 235.004 46.36ZM245.414 46V28.72H252.554C252.722 28.72 252.938 28.728 253.202 28.744C253.466 28.752 253.71 28.776 253.934 28.816C254.934 28.968 255.758 29.3 256.406 29.812C257.062 30.324 257.546 30.972 257.858 31.756C258.178 32.532 258.338 33.396 258.338 34.348C258.338 35.292 258.178 36.156 257.858 36.94C257.538 37.716 257.05 38.36 256.394 38.872C255.746 39.384 254.926 39.716 253.934 39.868C253.71 39.9 253.462 39.924 253.19 39.94C252.926 39.956 252.714 39.964 252.554 39.964H248.306V46H245.414ZM248.306 37.264H252.434C252.594 37.264 252.774 37.256 252.974 37.24C253.174 37.224 253.358 37.192 253.526 37.144C254.006 37.024 254.382 36.812 254.654 36.508C254.934 36.204 255.13 35.86 255.242 35.476C255.362 35.092 255.422 34.716 255.422 34.348C255.422 33.98 255.362 33.604 255.242 33.22C255.13 32.828 254.934 32.48 254.654 32.176C254.382 31.872 254.006 31.66 253.526 31.54C253.358 31.492 253.174 31.464 252.974 31.456C252.774 31.44 252.594 31.432 252.434 31.432H248.306V37.264Z" fill="white"/>
<path d="M279.084 44.9173L294.917 29.084" stroke="white" stroke-width="3.17985" stroke-linecap="round" stroke-linejoin="round"/>
<path d="M279.084 29.084H294.917V44.9173" stroke="white" stroke-width="3.17985" stroke-linecap="round" stroke-linejoin="round"/>
</svg>
