<svg width="56" height="56" viewBox="0 0 56 56" fill="none" xmlns="http://www.w3.org/2000/svg">
<circle cx="28" cy="28" r="27" fill="white" stroke="#EEEEEE" stroke-width="2"/>
<g clip-path="url(#clip0_3925_44491)">
<path d="M39.5467 21.333C43.2294 27.7103 41.0441 35.8663 34.6667 39.5463C29.1694 42.7196 22.3561 41.5343 18.2201 37.0663C17.9858 36.8058 17.8636 36.4635 17.8797 36.1136C17.8958 35.7636 18.049 35.434 18.3062 35.1961C18.5634 34.9582 18.9038 34.8311 19.254 34.8422C19.6041 34.8534 19.9359 35.0019 20.1774 35.2556C21.8248 37.0322 24.0279 38.195 26.4242 38.5527C28.8204 38.9104 31.2671 38.4417 33.3615 37.2236C35.4559 36.0056 37.0732 34.1108 37.9473 31.8511C38.8213 29.5915 38.9001 27.1016 38.1706 24.7912C37.4411 22.4808 35.9467 20.4876 33.9335 19.1396C31.9203 17.7916 29.5081 17.1692 27.094 17.3747C24.68 17.5803 22.4078 18.6015 20.6514 20.2704C18.895 21.9394 17.7592 24.1565 17.4307 26.557L19.1387 26.1103C20.5347 25.7463 21.5627 27.4036 20.6161 28.493L17.6134 31.9423C16.8561 32.8116 15.3934 32.5156 15.0907 31.3503C14.3587 28.5262 14.5729 25.5399 15.7004 22.8491C16.828 20.1584 18.8067 17.9115 21.3334 16.453C27.7107 12.7716 35.8654 14.9556 39.5467 21.333ZM28.0001 19.9996C28.3537 19.9996 28.6928 20.1401 28.9429 20.3902C29.1929 20.6402 29.3334 20.9793 29.3334 21.333V27.4476L32.9427 31.057C33.0701 31.18 33.1717 31.3271 33.2415 31.4898C33.3114 31.6524 33.3482 31.8274 33.3497 32.0044C33.3513 32.1815 33.3175 32.357 33.2505 32.5209C33.1834 32.6848 33.0844 32.8336 32.9593 32.9588C32.8341 33.084 32.6852 33.183 32.5213 33.2501C32.3575 33.3171 32.1819 33.3508 32.0049 33.3493C31.8278 33.3478 31.6529 33.311 31.4902 33.2411C31.3275 33.1712 31.1804 33.0696 31.0574 32.9423L27.0574 28.9423C26.8073 28.6923 26.6668 28.3532 26.6667 27.9996V21.333C26.6667 20.9793 26.8072 20.6402 27.0573 20.3902C27.3073 20.1401 27.6464 19.9996 28.0001 19.9996Z" fill="#09244B"/>
</g>
<defs>
<clipPath id="clip0_3925_44491">
<rect width="32" height="32" fill="white" transform="translate(12 12)"/>
</clipPath>
</defs>
</svg>
