<svg width="56" height="56" viewBox="0 0 56 56" fill="none" xmlns="http://www.w3.org/2000/svg">
<circle cx="28" cy="28" r="27" fill="white" stroke="#EEEEEE" stroke-width="2"/>
<path d="M20.0095 21.7298C20.0031 21.5985 19.9998 21.4664 19.9998 21.3335C19.9998 16.9152 23.5815 13.3335 27.9998 13.3335C29.7993 13.3335 31.4634 13.9292 32.8006 14.9336L31.199 17.0658C30.3078 16.3963 29.202 16.0002 27.9998 16.0002C27.6317 16.0002 27.2721 16.0375 26.9249 16.1085C24.4947 16.6058 22.6665 18.7562 22.6665 21.3335C22.6665 24.0443 24.6889 26.2827 27.3072 26.6223C28.6717 24.7448 30.7398 23.6119 32.9278 23.3776C33.8393 23.2799 34.7721 23.3386 35.6845 23.5635C36.4006 23.7399 37.1038 24.0189 37.7732 24.4054C41.5996 26.6146 42.9105 31.5072 40.7014 35.3335C38.4922 39.1599 33.5996 40.471 29.7732 38.2618C29.1038 37.8754 28.5108 37.4059 27.9998 36.874C27.489 37.4059 26.8958 37.8754 26.2264 38.2619C22.4001 40.471 17.5074 39.16 15.2982 35.3336C13.0891 31.5074 14.4001 26.6146 18.2264 24.4055C18.8957 24.019 19.5988 23.7401 20.3148 23.5636C20.1502 22.9954 20.0469 22.4012 20.0126 21.7886L20.0095 21.7298ZM21.5329 26.0439C20.858 26.132 20.1883 26.3519 19.5598 26.7148C17.0089 28.1876 16.1349 31.4495 17.6076 34.0003C19.0804 36.5512 22.3422 37.4252 24.8931 35.9524C25.736 35.4659 26.393 34.7868 26.8448 34.0034C27.657 32.5944 27.8041 30.8523 27.153 29.2894C26.6408 29.2354 26.1428 29.1331 25.664 28.9871C25.6036 28.9687 25.5434 28.9495 25.4836 28.9298C23.883 28.3998 22.5065 27.3782 21.5329 26.0439ZM29.5389 34.5792C29.9528 35.1196 30.478 35.5895 31.1065 35.9524C33.6574 37.4251 36.9192 36.5511 38.392 34.0002C39.058 32.8468 39.2441 31.548 39.0122 30.335C38.7316 28.8652 37.8373 27.5214 36.4398 26.7144C35.5969 26.2279 34.6804 25.9983 33.7761 25.9988C32.1498 25.9999 30.5677 26.7436 29.5396 28.089C29.688 28.4222 29.8116 28.7611 29.9113 29.1038C29.9697 29.3048 30.02 29.5071 30.0621 29.7102C30.0801 29.7972 30.0966 29.8843 30.1117 29.9716C30.3826 31.5424 30.1728 33.1483 29.5389 34.5792ZM36.7697 21.3335C37.1545 21.7789 37.4745 22.2851 37.7153 22.8376L38.044 23.5919C38.2846 24.1441 39.0484 24.1441 39.2889 23.5919L39.6177 22.8376C40.2037 21.4928 41.2592 20.422 42.5762 19.8363L43.5598 19.3858C44.1076 19.1422 44.1076 18.3452 43.5598 18.1017L42.6329 17.6764C41.282 17.0755 40.2076 15.9651 39.6316 14.5746L39.294 13.7595C39.0588 13.1915 38.2742 13.1915 38.0389 13.7595L37.7013 14.5746C37.5952 14.8311 37.472 15.078 37.3332 15.314C36.7197 16.3574 35.8018 17.1863 34.7001 17.6764L33.7438 18.1017C33.1962 18.3452 33.1962 19.1422 33.7438 19.3858L34.7568 19.8363C35.5326 20.1814 36.2178 20.6948 36.7697 21.3335Z" fill="black"/>
</svg>
