<svg width="42" height="42" viewBox="0 0 42 42" fill="none" xmlns="http://www.w3.org/2000/svg">
<path d="M24.5226 12.25C24.8765 12.2498 25.2222 12.3569 25.514 12.5571C25.8058 12.7574 26.03 13.0414 26.1571 13.3718L28.5091 19.4863C28.597 19.7146 28.7318 19.922 28.9048 20.095C29.0779 20.268 29.2852 20.4029 29.5136 20.4908L35.6281 22.8428C35.9584 22.9698 36.2425 23.194 36.4427 23.4859C36.643 23.7777 36.7501 24.1233 36.7498 24.4773V24.5228C36.7501 24.8767 36.643 25.2223 36.4427 25.5142C36.2425 25.806 35.9584 26.0302 35.6281 26.1573L29.5136 28.5093C29.2852 28.5972 29.0779 28.732 28.9048 28.905C28.7318 29.078 28.597 29.2854 28.5091 29.5138L26.1571 35.6283C26.03 35.9586 25.8058 36.2426 25.514 36.4429C25.2222 36.6432 24.8765 36.7502 24.5226 36.75H24.4771C24.1232 36.7502 23.7775 36.6432 23.4857 36.4429C23.1939 36.2426 22.9696 35.9586 22.8426 35.6283L20.4906 29.5138C20.4027 29.2854 20.2679 29.078 20.0949 28.905C19.9218 28.732 19.7144 28.5972 19.4861 28.5093L13.3716 26.1573C13.0413 26.0302 12.7572 25.806 12.557 25.5142C12.3567 25.2223 12.2496 24.8767 12.2498 24.5228V24.4773C12.2496 24.1233 12.3567 23.7777 12.557 23.4859C12.7572 23.194 13.0413 22.9698 13.3716 22.8428L19.4861 20.4908C19.7144 20.4029 19.9218 20.268 20.0949 20.095C20.2679 19.922 20.4027 19.7146 20.4906 19.4863L22.8426 13.3718C22.9696 13.0414 23.1939 12.7574 23.4857 12.5571C23.7775 12.3569 24.1232 12.2498 24.4771 12.25H24.5226ZM12.2498 5.25C12.6716 5.25 13.0513 5.51076 13.2018 5.90451L14.4216 9.07201C14.5093 9.30068 14.644 9.50841 14.817 9.68174C14.9901 9.85508 15.1976 9.99016 15.4261 10.0783L18.5953 11.298C18.7877 11.3721 18.953 11.5028 19.0697 11.6727C19.1863 11.8426 19.2487 12.0439 19.2487 12.25C19.2487 12.4561 19.1863 12.6574 19.0697 12.8273C18.953 12.9973 18.7877 13.1279 18.5953 13.202L15.4278 14.4218C15.1992 14.5095 14.9914 14.6442 14.8181 14.8172C14.6448 14.9902 14.5097 15.1977 14.4216 15.4263L13.2018 18.5955C13.1277 18.7878 12.9971 18.9532 12.8272 19.0698C12.6572 19.1864 12.4559 19.2489 12.2498 19.2489C12.0437 19.2489 11.8425 19.1864 11.6725 19.0698C11.5026 18.9532 11.372 18.7878 11.2978 18.5955L10.0781 15.428C9.99039 15.1993 9.85567 14.9916 9.68264 14.8183C9.5096 14.6449 9.30212 14.5099 9.07359 14.4218L5.90434 13.202C5.71202 13.1279 5.54666 12.9973 5.43003 12.8273C5.3134 12.6574 5.25098 12.4561 5.25098 12.25C5.25098 12.0439 5.3134 11.8426 5.43003 11.6727C5.54666 11.5028 5.71202 11.3721 5.90434 11.298L9.07184 10.0783C9.30052 9.99056 9.50824 9.85584 9.68158 9.6828C9.85491 9.50977 9.98999 9.30228 10.0781 9.07375L11.2978 5.90451C11.3711 5.71155 11.5015 5.54554 11.6716 5.4286C11.8417 5.31166 12.0434 5.24936 12.2498 5.25Z" fill="white"/>
</svg>
