<svg width="74" height="74" viewBox="0 0 74 74" fill="none" xmlns="http://www.w3.org/2000/svg">
<g clip-path="url(#clip0_4006_37778)">
<path fill-rule="evenodd" clip-rule="evenodd" d="M61.4548 55.5648C61.4548 48.9789 57.5432 44.3565 52.0251 42.383C50.0385 41.6755 47.8588 41.3078 45.5682 41.3078L42.4619 45.0941L23.7732 67.8684L24.0176 54.9257C24.1491 47.8736 21.6653 44.0772 14.364 44.1375L9.88136 44.1676L30.7499 16.8092L30.8012 32.6599C30.8197 37.8892 33.5603 41.0284 39.1523 41.3078C46.5543 41.3078 52.6045 35.3791 52.6045 28.146C52.6045 20.903 46.5543 14.9863 39.1523 14.9863H18.0225C13.657 14.9863 11.4742 14.9863 10.1179 16.3425C8.76172 17.6988 8.76172 19.8816 8.76172 24.2472V60.561C8.76172 64.9266 8.76172 67.1094 10.1179 68.4656C11.4742 69.8218 13.657 69.8218 18.0226 69.8218H46.8809C54.8972 69.8218 61.4548 63.4047 61.4548 55.5648Z" fill="url(#paint0_linear_4006_37778)"/>
<path d="M55.6623 3.62109C56.4263 9.23439 61.1599 13.586 66.8471 13.5865C61.1606 13.587 56.4271 17.9376 55.6623 23.5499C54.8975 17.9377 50.1638 13.5872 44.4775 13.5865C50.1645 13.5858 54.8984 9.23428 55.6623 3.62109Z" fill="url(#paint1_linear_4006_37778)"/>
</g>
<defs>
<linearGradient id="paint0_linear_4006_37778" x1="8.76172" y1="14.9863" x2="72.8333" y2="47.1675" gradientUnits="userSpaceOnUse">
<stop stop-color="#FFA73C"/>
<stop offset="0.966346" stop-color="#FF5255"/>
</linearGradient>
<linearGradient id="paint1_linear_4006_37778" x1="44.4775" y1="3.62109" x2="69.817" y2="18.4879" gradientUnits="userSpaceOnUse">
<stop stop-color="#FFA73C"/>
<stop offset="0.966346" stop-color="#FF5255"/>
</linearGradient>
<clipPath id="clip0_4006_37778">
<rect width="66.2007" height="66.2007" fill="white" transform="translate(3.62012 3.62109)"/>
</clipPath>
</defs>
</svg>
