<svg width="112" height="112" viewBox="0 0 112 112" fill="none" xmlns="http://www.w3.org/2000/svg">
<circle cx="56" cy="56" r="54" fill="white" stroke="#EEEEEE" stroke-width="4"/>
<g clip-path="url(#clip0_4006_37769)">
<path d="M79.0944 42.663C86.4598 55.4177 82.0891 71.7297 69.3344 79.0897C58.3398 85.4363 44.7131 83.0657 36.4411 74.1297C35.9727 73.6086 35.7281 72.9241 35.7604 72.2242C35.7926 71.5243 36.099 70.8651 36.6134 70.3894C37.1277 69.9136 37.8087 69.6593 38.509 69.6816C39.2093 69.7038 39.8727 70.0008 40.3558 70.5083C43.6505 74.0615 48.0567 76.3871 52.8493 77.1025C57.6418 77.8179 62.5352 76.8804 66.7239 74.4443C70.9127 72.0082 74.1473 68.2187 75.8955 63.6994C77.6436 59.18 77.8012 54.2002 76.3421 49.5794C74.8831 44.9587 71.8944 40.9723 67.868 38.2763C63.8415 35.5803 59.0173 34.3355 54.1891 34.7465C49.3609 35.1576 44.8165 37.2001 41.3038 40.538C37.791 43.8758 35.5193 48.3101 34.8624 53.111L38.2784 52.2177C41.0704 51.4897 43.1264 54.8043 41.2331 56.983L35.2278 63.8817C33.7131 65.6203 30.7878 65.0283 30.1824 62.6977C28.7184 57.0494 29.1467 51.0769 31.4018 45.6954C33.6569 40.3138 37.6144 35.8202 42.6678 32.903C55.4224 25.5403 71.7318 29.9083 79.0944 42.663ZM56.0011 39.9963C56.7083 39.9963 57.3866 40.2773 57.8867 40.7774C58.3868 41.2775 58.6678 41.9557 58.6678 42.663V54.8923L65.8864 62.111C66.1411 62.357 66.3443 62.6512 66.484 62.9766C66.6238 63.3019 66.6974 63.6518 66.7004 64.0059C66.7035 64.36 66.636 64.7111 66.502 65.0389C66.3679 65.3666 66.1699 65.6643 65.9195 65.9147C65.6691 66.1651 65.3714 66.3631 65.0436 66.4972C64.7159 66.6313 64.3648 66.6987 64.0107 66.6957C63.6566 66.6926 63.3067 66.619 62.9813 66.4793C62.656 66.3395 62.3618 66.1364 62.1158 65.8817L54.1158 57.8817C53.6156 57.3817 53.3346 56.7035 53.3344 55.9963V42.663C53.3344 41.9557 53.6154 41.2775 54.1155 40.7774C54.6156 40.2773 55.2939 39.9963 56.0011 39.9963Z" fill="#09244B"/>
</g>
<defs>
<clipPath id="clip0_4006_37769">
<rect width="64" height="64" fill="white" transform="translate(24.002 23.998)"/>
</clipPath>
</defs>
</svg>
