<svg width="112" height="112" viewBox="0 0 112 112" fill="none" xmlns="http://www.w3.org/2000/svg">
<circle cx="56" cy="56" r="54" fill="white" stroke="#EEEEEE" stroke-width="4"/>
<g clip-path="url(#clip0_4006_37764)">
<path d="M40.0199 43.4607C40.0071 43.198 40.0006 42.9337 40.0006 42.668C40.0006 33.8314 47.164 26.668 56.0007 26.668C59.5996 26.668 62.9279 27.8594 65.6023 29.8682L62.3991 34.1325C60.6167 32.7936 58.4049 32.0013 56.0007 32.0013C55.2644 32.0013 54.5452 32.0759 53.8508 32.218C48.9903 33.2127 45.334 37.5133 45.334 42.668C45.334 48.0895 49.3788 52.5664 54.6153 53.2456C57.3444 49.4906 61.4807 47.2249 65.8567 46.7561C67.6796 46.5609 69.5452 46.6782 71.37 47.1279C72.8023 47.4808 74.2087 48.0387 75.5473 48.8117C83.2001 53.2301 85.822 63.0154 81.4039 70.668C76.9855 78.3208 67.2001 80.9429 59.5473 76.5245C58.2087 75.7517 57.0225 74.8128 56.0007 73.749C54.9791 74.8128 53.7927 75.7517 52.4537 76.5248C44.8012 80.9429 35.0157 78.321 30.5974 70.6682C26.1792 63.0157 28.8012 53.2301 36.4539 48.8119C37.7925 48.0391 39.1985 47.4811 40.6306 47.1283C40.3014 45.9919 40.0948 44.8034 40.0261 43.5781L40.0199 43.4607ZM43.0668 52.0888C41.7169 52.265 40.3777 52.7048 39.1205 53.4306C34.0187 56.3762 32.2707 62.9 35.2163 68.0016C38.1618 73.1034 44.6854 74.8514 49.7872 71.9058C51.4729 70.9328 52.7871 69.5746 53.6905 68.0077C55.3151 65.1898 55.6092 61.7056 54.3071 58.5797C53.2825 58.4717 52.2865 58.2672 51.3289 57.9752C51.2081 57.9384 51.0879 57.9 50.9681 57.8605C47.767 56.8005 45.0139 54.7573 43.0668 52.0888ZM59.0788 69.1594C59.9065 70.2402 60.9569 71.18 62.214 71.9058C67.3159 74.8512 73.8393 73.1032 76.7849 68.0013C78.1169 65.6946 78.4892 63.097 78.0255 60.6709C77.4641 57.7314 75.6756 55.0437 72.8807 53.4298C71.1948 52.4568 69.3617 51.9976 67.5532 51.9986C64.3007 52.0008 61.1364 53.4882 59.0801 56.1789C59.3769 56.8453 59.6241 57.5232 59.8236 58.2085C59.9404 58.6106 60.0409 59.0152 60.1252 59.4213C60.1612 59.5954 60.1943 59.7696 60.2244 59.9442C60.7663 63.0858 60.3465 66.2976 59.0788 69.1594ZM73.5404 42.668C74.31 43.5587 74.95 44.5712 75.4316 45.6763L76.0889 47.1847C76.5703 48.2891 78.0977 48.2891 78.5788 47.1847L79.2364 45.6763C80.4084 42.9866 82.5193 40.8451 85.1535 39.6735L87.1207 38.7726C88.2161 38.2854 88.2161 36.6915 87.1207 36.2043L85.2668 35.3537C82.5649 34.152 80.4161 31.9313 79.2641 29.1502L78.5889 27.5201C78.1185 26.3839 76.5495 26.3839 76.0788 27.5201L75.4036 29.1502C75.1913 29.6631 74.9449 30.157 74.6673 30.629C73.4404 32.7158 71.6047 34.3737 69.4012 35.3537L67.4887 36.2043C66.3935 36.6915 66.3935 38.2854 67.4887 38.7726L69.5145 39.6735C71.0663 40.3637 72.4367 41.3906 73.5404 42.668Z" fill="black"/>
</g>
<defs>
<clipPath id="clip0_4006_37764">
<rect width="64" height="64" fill="white" transform="translate(23.999 23.998)"/>
</clipPath>
</defs>
</svg>
