<svg width="242" height="42" viewBox="0 0 242 42" fill="none" xmlns="http://www.w3.org/2000/svg">
<path d="M8.2437 7.37644C8.87112 4.74128 9.18483 3.4237 9.90822 2.44162C10.5464 1.57522 11.4058 0.896389 12.3965 0.476245C13.5194 0 14.8738 0 17.5826 0H229.846C233.994 0 236.069 0 237.496 0.857954C238.746 1.61004 239.68 2.79227 240.122 4.18326C240.626 5.77005 240.146 7.78789 239.185 11.8236L233.756 34.6236C233.129 37.2587 232.815 38.5763 232.092 39.5584C231.454 40.4248 230.594 41.1036 229.604 41.5238C228.481 42 227.126 42 224.417 42H12.1541C8.00559 42 5.93135 42 4.50447 41.142C3.25366 40.39 2.31988 39.2077 1.87795 37.8167C1.37382 36.2299 1.85426 34.2121 2.81513 30.1764L8.2437 7.37644Z" fill="url(#paint0_linear_3877_6371)"/>
<path fill-rule="evenodd" clip-rule="evenodd" d="M22 12.75C22 11.7835 22.7835 11 23.75 11H31.579C32.0432 11 32.4883 11.1844 32.8165 11.5126L41.5732 20.2693C42.2566 20.9527 42.2566 22.0608 41.5732 22.7442L33.7442 30.5732C33.0608 31.2566 31.9527 31.2566 31.2693 30.5732L22.5126 21.8165C22.1844 21.4883 22 21.0432 22 20.579V12.75ZM27.5 18C28.3284 18 29 17.3284 29 16.5C29 15.6716 28.3284 15 27.5 15C26.6716 15 26 15.6716 26 16.5C26 17.3284 26.6716 18 27.5 18Z" fill="white"/>
<path d="M49.6416 28V14.8H52.5416V28H49.6416ZM51.6416 28V25.66H59.8216V28H51.6416ZM51.6416 22.4V20.26H58.8216V22.4H51.6416ZM51.6416 17.12V14.8H59.7816V17.12H51.6416ZM61.1007 28L65.6407 21.38L61.2007 14.8H64.5607L67.6007 19.84H67.7207L70.7807 14.8H74.1607L69.6607 21.32L74.2807 28H70.9207L67.7007 22.84H67.6007L64.4607 28H61.1007ZM79.0823 28V14.8H81.9623V28H79.0823ZM75.1823 17.22V14.8H85.8623V17.22H75.1823ZM87.708 28V14.8H93.068C93.788 14.8 94.4414 14.86 95.028 14.98C95.6147 15.0867 96.1347 15.2467 96.588 15.46C97.0414 15.6733 97.4214 15.94 97.728 16.26C98.048 16.5667 98.288 16.9267 98.448 17.34C98.608 17.74 98.688 18.1867 98.688 18.68C98.688 19.1467 98.6147 19.5733 98.468 19.96C98.3214 20.3333 98.1014 20.66 97.808 20.94C97.5147 21.22 97.148 21.4533 96.708 21.64C96.268 21.8133 95.7547 21.9333 95.168 22V22.3C95.848 22.3667 96.388 22.5267 96.788 22.78C97.2014 23.02 97.5214 23.3467 97.748 23.76C97.988 24.1733 98.1947 24.6867 98.368 25.3L99.168 28H95.988L95.368 25.5C95.248 24.9667 95.0747 24.5533 94.848 24.26C94.6214 23.9533 94.3347 23.74 93.988 23.62C93.6414 23.4867 93.2214 23.42 92.728 23.42H90.588V28H87.708ZM90.588 21.26H92.868C93.7747 21.26 94.4747 21.0867 94.968 20.74C95.4614 20.3933 95.708 19.8533 95.708 19.12C95.708 18.4 95.4747 17.8733 95.008 17.54C94.5547 17.1933 93.868 17.02 92.948 17.02H90.588V21.26ZM100.241 28L104.761 14.8H108.961L113.481 28H110.361L107.021 17.08H106.721L103.361 28H100.241ZM102.781 25.4V23.44H111.361V25.4H102.781ZM121.295 28V25.66H125.135C125.882 25.66 126.502 25.5 126.995 25.18C127.488 24.8467 127.862 24.3667 128.115 23.74C128.368 23.1133 128.495 22.3467 128.495 21.44C128.495 20.6933 128.415 20.0533 128.255 19.52C128.095 18.9733 127.855 18.5267 127.535 18.18C127.228 17.8333 126.835 17.5733 126.355 17.4C125.888 17.2267 125.335 17.14 124.695 17.14H121.295V14.8H124.595C126.195 14.8 127.502 15.06 128.515 15.58C129.528 16.1 130.275 16.8467 130.755 17.82C131.235 18.78 131.475 19.9333 131.475 21.28C131.475 22.2933 131.355 23.1733 131.115 23.92C130.875 24.6667 130.548 25.3 130.135 25.82C129.735 26.34 129.268 26.76 128.735 27.08C128.202 27.4 127.635 27.6333 127.035 27.78C126.435 27.9267 125.828 28 125.215 28H121.295ZM119.915 28V14.8H122.795V28H119.915ZM133.88 28V14.8H136.82V28H133.88ZM144.839 28.28C143.973 28.28 143.193 28.1933 142.499 28.02C141.819 27.86 141.233 27.6133 140.739 27.28C140.259 26.9333 139.879 26.5067 139.599 26C139.333 25.48 139.179 24.8867 139.139 24.22L141.659 23.4C141.686 24 141.833 24.5 142.099 24.9C142.379 25.3 142.773 25.5933 143.279 25.78C143.786 25.9667 144.353 26.06 144.979 26.06C145.579 26.06 146.086 25.9867 146.499 25.84C146.913 25.6933 147.226 25.5 147.439 25.26C147.653 25.0067 147.759 24.7333 147.759 24.44C147.759 24.0933 147.626 23.8133 147.359 23.6C147.093 23.3867 146.726 23.2067 146.259 23.06C145.806 22.9133 145.286 22.7733 144.699 22.64C144.046 22.4933 143.399 22.3267 142.759 22.14C142.133 21.9533 141.559 21.7133 141.039 21.42C140.533 21.1267 140.126 20.7467 139.819 20.28C139.526 19.8133 139.379 19.2267 139.379 18.52C139.379 17.7067 139.579 17.0067 139.979 16.42C140.393 15.82 140.993 15.3533 141.779 15.02C142.566 14.6867 143.513 14.52 144.619 14.52C145.739 14.52 146.693 14.6867 147.479 15.02C148.279 15.34 148.899 15.8 149.339 16.4C149.779 16.9867 150.019 17.6867 150.059 18.5L147.459 19.22C147.459 18.8067 147.393 18.4467 147.259 18.14C147.126 17.8333 146.939 17.58 146.699 17.38C146.459 17.1667 146.159 17.0067 145.799 16.9C145.453 16.7933 145.053 16.74 144.599 16.74C144.079 16.74 143.626 16.8067 143.239 16.94C142.866 17.0733 142.579 17.2533 142.379 17.48C142.193 17.7067 142.099 17.9733 142.099 18.28C142.099 18.64 142.246 18.94 142.539 19.18C142.846 19.4067 143.246 19.5933 143.739 19.74C144.246 19.8867 144.799 20.0267 145.399 20.16C145.973 20.28 146.553 20.4333 147.139 20.62C147.739 20.7933 148.293 21.0267 148.799 21.32C149.319 21.6 149.733 21.9867 150.039 22.48C150.359 22.96 150.519 23.5667 150.519 24.3C150.519 25.1 150.306 25.8 149.879 26.4C149.453 27 148.813 27.4667 147.959 27.8C147.119 28.12 146.079 28.28 144.839 28.28ZM158.827 28.28C157.8 28.28 156.88 28.14 156.067 27.86C155.267 27.5667 154.58 27.14 154.007 26.58C153.447 26.0067 153.02 25.3 152.727 24.46C152.433 23.62 152.287 22.6467 152.287 21.54C152.287 20.42 152.433 19.4267 152.727 18.56C153.033 17.6933 153.467 16.96 154.027 16.36C154.6 15.7467 155.273 15.2867 156.047 14.98C156.82 14.6733 157.68 14.52 158.627 14.52C159.36 14.52 160.04 14.62 160.667 14.82C161.293 15.0067 161.833 15.28 162.287 15.64C162.74 16 163.093 16.44 163.347 16.96C163.613 17.48 163.753 18.0667 163.767 18.72L161.107 19.42C161.107 18.86 160.98 18.3933 160.727 18.02C160.487 17.6467 160.167 17.3667 159.767 17.18C159.38 16.98 158.967 16.88 158.527 16.88C158.14 16.88 157.753 16.96 157.367 17.12C156.993 17.2667 156.647 17.52 156.327 17.88C156.02 18.2267 155.767 18.6867 155.567 19.26C155.38 19.8333 155.287 20.5333 155.287 21.36C155.287 22.44 155.44 23.3133 155.747 23.98C156.067 24.6467 156.5 25.14 157.047 25.46C157.593 25.7667 158.207 25.92 158.887 25.92C159.62 25.92 160.187 25.7733 160.587 25.48C161 25.1733 161.293 24.7867 161.467 24.32C161.653 23.84 161.753 23.3333 161.767 22.8L164.287 23.22C164.273 23.9267 164.167 24.5933 163.967 25.22C163.767 25.8333 163.453 26.3733 163.027 26.84C162.6 27.2933 162.04 27.6467 161.347 27.9C160.653 28.1533 159.813 28.28 158.827 28.28ZM172.08 28.28C171.12 28.28 170.26 28.1333 169.5 27.84C168.74 27.5333 168.087 27.0933 167.54 26.52C167.007 25.9333 166.594 25.22 166.3 24.38C166.02 23.5267 165.88 22.5533 165.88 21.46C165.88 19.9 166.154 18.6133 166.7 17.6C167.247 16.5733 167.994 15.8067 168.94 15.3C169.9 14.78 170.98 14.52 172.18 14.52C173.114 14.52 173.96 14.6733 174.72 14.98C175.48 15.2733 176.127 15.7133 176.66 16.3C177.207 16.8733 177.627 17.5933 177.92 18.46C178.214 19.3133 178.36 20.2933 178.36 21.4C178.36 22.5333 178.214 23.5267 177.92 24.38C177.627 25.2333 177.2 25.9533 176.64 26.54C176.094 27.1133 175.434 27.5467 174.66 27.84C173.887 28.1333 173.027 28.28 172.08 28.28ZM172.16 25.98C172.867 25.98 173.46 25.8067 173.94 25.46C174.42 25.1133 174.787 24.6133 175.04 23.96C175.294 23.3067 175.42 22.5067 175.42 21.56C175.42 20.5733 175.287 19.7333 175.02 19.04C174.767 18.3467 174.394 17.82 173.9 17.46C173.407 17.0867 172.807 16.9 172.1 16.9C171.407 16.9 170.814 17.08 170.32 17.44C169.84 17.7867 169.467 18.2933 169.2 18.96C168.947 19.6267 168.82 20.4533 168.82 21.44C168.82 22.16 168.894 22.8067 169.04 23.38C169.2 23.94 169.42 24.4133 169.7 24.8C169.98 25.1867 170.327 25.48 170.74 25.68C171.154 25.88 171.627 25.98 172.16 25.98ZM186.634 28.28C185.821 28.28 185.094 28.1933 184.454 28.02C183.827 27.86 183.281 27.6267 182.814 27.32C182.347 27 181.954 26.62 181.634 26.18C181.327 25.7267 181.094 25.22 180.934 24.66C180.787 24.1 180.714 23.4867 180.714 22.82V14.8H183.614V22.72C183.614 23.4 183.721 23.9667 183.934 24.42C184.161 24.86 184.494 25.1867 184.934 25.4C185.374 25.6133 185.934 25.72 186.614 25.72C187.307 25.72 187.874 25.6133 188.314 25.4C188.767 25.1867 189.101 24.86 189.314 24.42C189.541 23.9667 189.654 23.4 189.654 22.72V14.8H192.514V22.82C192.514 24.5533 192.021 25.9 191.034 26.86C190.061 27.8067 188.594 28.28 186.634 28.28ZM195.345 28V14.8H199.105L205.085 24.14H205.305L205.125 14.8H207.925V28H204.525L198.205 18.22H197.985L198.165 28H195.345ZM213.653 28V14.8H216.533V28H213.653ZM209.753 17.22V14.8H220.433V17.22H209.753Z" fill="white"/>
<defs>
<linearGradient id="paint0_linear_3877_6371" x1="0" y1="21" x2="242" y2="21" gradientUnits="userSpaceOnUse">
<stop stop-color="#FFA73C"/>
<stop offset="1" stop-color="#FF5255"/>
</linearGradient>
</defs>
</svg>
