<svg width="426" height="102" viewBox="0 0 426 102" fill="none" xmlns="http://www.w3.org/2000/svg">
<rect y="12" width="426" height="90" rx="32" fill="url(#paint0_linear_3877_6381)" fill-opacity="0.86"/>
<rect width="426" height="96" rx="32" fill="url(#paint1_linear_3877_6381)"/>
<path fill-rule="evenodd" clip-rule="evenodd" d="M85.0082 36.314C85.3379 35.5529 86.4181 35.5528 86.7478 36.314L87.9151 39.0142C89.3413 42.3104 91.9462 44.956 95.2192 46.4346L97.6393 47.5284C98.3827 47.8642 98.3827 48.9203 97.6393 49.2561L95.0997 50.4029C91.8984 51.8489 89.3336 54.4134 87.8878 57.6148L86.741 60.1543C86.4052 60.8975 85.3491 60.8977 85.0132 60.1543L83.8665 57.6148C83.1701 56.0729 82.2115 54.6818 81.0501 53.4894C82.0529 53.6031 83.0965 53.6842 84.1708 53.7251C84.1732 53.7251 84.1767 53.7249 84.1792 53.7251C84.8869 53.7249 85.4521 53.1835 85.4525 52.4758C85.4525 51.812 84.9473 51.2359 84.3006 51.1668L84.1708 51.16L82.8308 51.0882C79.8206 50.8775 77.1058 50.3571 74.932 49.6252L74.1151 49.2561C73.3721 48.9203 73.3721 47.8642 74.1151 47.5284L76.535 46.4346C79.8084 44.9562 82.4127 42.3106 83.8392 39.0142L85.0082 36.314Z" fill="white"/>
<path d="M123.744 60.48C122.251 60.48 120.848 60.2187 119.536 59.696C118.235 59.1627 117.088 58.384 116.096 57.36C115.115 56.336 114.347 55.0827 113.792 53.6C113.237 52.1067 112.96 50.4 112.96 48.48C112.96 45.9627 113.429 43.8133 114.368 42.032C115.307 40.24 116.592 38.8693 118.224 37.92C119.856 36.96 121.696 36.48 123.744 36.48C126.581 36.48 128.827 37.1413 130.48 38.464C132.144 39.776 133.269 41.6213 133.856 44L129.92 44.624C129.483 43.2587 128.768 42.1707 127.776 41.36C126.784 40.5387 125.52 40.128 123.984 40.128C122.437 40.1067 121.152 40.4427 120.128 41.136C119.104 41.8293 118.331 42.8053 117.808 44.064C117.296 45.3227 117.04 46.7947 117.04 48.48C117.04 50.1653 117.296 51.632 117.808 52.88C118.32 54.1173 119.088 55.0827 120.112 55.776C121.147 56.4693 122.437 56.8267 123.984 56.848C125.147 56.8587 126.165 56.6507 127.04 56.224C127.915 55.7867 128.629 55.1307 129.184 54.256C129.739 53.3707 130.112 52.2667 130.304 50.944H126.24V47.92H134.4C134.421 48.0907 134.437 48.3413 134.448 48.672C134.459 49.0027 134.464 49.2 134.464 49.264C134.464 51.44 134.032 53.376 133.168 55.072C132.315 56.7573 131.088 58.08 129.488 59.04C127.888 60 125.973 60.48 123.744 60.48ZM145.534 60.48C143.784 60.48 142.248 60.1013 140.926 59.344C139.603 58.5867 138.568 57.536 137.822 56.192C137.086 54.848 136.718 53.3013 136.718 51.552C136.718 49.664 137.08 48.0267 137.806 46.64C138.531 45.2427 139.539 44.16 140.83 43.392C142.12 42.624 143.614 42.24 145.31 42.24C147.102 42.24 148.622 42.6613 149.87 43.504C151.128 44.336 152.062 45.5147 152.67 47.04C153.278 48.5653 153.507 50.3627 153.358 52.432H149.534V51.024C149.523 49.1467 149.192 47.776 148.542 46.912C147.891 46.048 146.867 45.616 145.47 45.616C143.891 45.616 142.718 46.1067 141.95 47.088C141.182 48.0587 140.798 49.4827 140.798 51.36C140.798 53.1093 141.182 54.464 141.95 55.424C142.718 56.384 143.838 56.864 145.31 56.864C146.259 56.864 147.075 56.656 147.758 56.24C148.451 55.8133 148.984 55.2 149.358 54.4L153.166 55.552C152.504 57.1093 151.48 58.32 150.094 59.184C148.718 60.048 147.198 60.48 145.534 60.48ZM139.582 52.432V49.52H151.47V52.432H139.582ZM167.056 60C165.914 60.2133 164.794 60.304 163.696 60.272C162.608 60.2507 161.632 60.0533 160.768 59.68C159.904 59.296 159.248 58.6933 158.799 57.872C158.405 57.1253 158.197 56.3627 158.176 55.584C158.154 54.8053 158.144 53.9253 158.144 52.944V37.92H161.984V52.72C161.984 53.4133 161.989 54.0213 162 54.544C162.021 55.0667 162.133 55.4933 162.336 55.824C162.72 56.464 163.333 56.8213 164.176 56.896C165.018 56.9707 165.978 56.928 167.056 56.768V60ZM155.008 45.744V42.72H167.056V45.744H155.008ZM179.45 67.68L182.778 58.544L182.842 61.232L175.306 42.72H179.322L184.666 56.416H183.642L188.842 42.72H192.698L183.066 67.68H179.45ZM202.091 60.48C200.363 60.48 198.853 60.0907 197.563 59.312C196.272 58.5333 195.269 57.4613 194.555 56.096C193.851 54.72 193.499 53.1413 193.499 51.36C193.499 49.5467 193.861 47.9573 194.587 46.592C195.312 45.2267 196.32 44.16 197.611 43.392C198.901 42.624 200.395 42.24 202.091 42.24C203.829 42.24 205.344 42.6293 206.635 43.408C207.925 44.1867 208.928 45.264 209.643 46.64C210.357 48.0053 210.715 49.5787 210.715 51.36C210.715 53.152 210.352 54.736 209.627 56.112C208.912 57.4773 207.909 58.5493 206.619 59.328C205.328 60.096 203.819 60.48 202.091 60.48ZM202.091 56.864C203.627 56.864 204.768 56.352 205.515 55.328C206.261 54.304 206.635 52.9813 206.635 51.36C206.635 49.6853 206.256 48.352 205.499 47.36C204.741 46.3573 203.605 45.856 202.091 45.856C201.056 45.856 200.203 46.0907 199.531 46.56C198.869 47.0187 198.379 47.664 198.059 48.496C197.739 49.3173 197.579 50.272 197.579 51.36C197.579 53.0347 197.957 54.3733 198.715 55.376C199.483 56.368 200.608 56.864 202.091 56.864ZM220.72 60.496C219.44 60.496 218.384 60.2827 217.552 59.856C216.72 59.4293 216.059 58.8853 215.568 58.224C215.077 57.5627 214.715 56.8587 214.48 56.112C214.245 55.3653 214.091 54.6613 214.016 54C213.952 53.328 213.92 52.784 213.92 52.368V42.72H217.824V51.04C217.824 51.5733 217.861 52.176 217.936 52.848C218.011 53.5093 218.181 54.1493 218.448 54.768C218.725 55.376 219.131 55.8773 219.664 56.272C220.208 56.6667 220.939 56.864 221.856 56.864C222.347 56.864 222.832 56.784 223.312 56.624C223.792 56.464 224.224 56.192 224.608 55.808C225.003 55.4133 225.317 54.8747 225.552 54.192C225.787 53.5093 225.904 52.6453 225.904 51.6L228.192 52.576C228.192 54.048 227.904 55.3813 227.328 56.576C226.763 57.7707 225.925 58.7253 224.816 59.44C223.707 60.144 222.341 60.496 220.72 60.496ZM226.368 60V54.64H225.904V42.72H229.776V60H226.368ZM234.271 60V42.72H237.679V46.928L237.263 46.384C237.477 45.808 237.759 45.2853 238.111 44.816C238.474 44.336 238.906 43.9413 239.407 43.632C239.834 43.344 240.303 43.12 240.815 42.96C241.338 42.7893 241.871 42.688 242.415 42.656C242.959 42.6133 243.487 42.6347 243.999 42.72V46.32C243.487 46.1707 242.895 46.1227 242.223 46.176C241.562 46.2293 240.965 46.416 240.431 46.736C239.898 47.024 239.461 47.392 239.119 47.84C238.789 48.288 238.543 48.8 238.383 49.376C238.223 49.9413 238.143 50.5547 238.143 51.216V60H234.271ZM260.963 60.48C259.181 60.48 257.661 60.0853 256.403 59.296C255.144 58.496 254.179 57.408 253.507 56.032C252.845 54.656 252.509 53.0987 252.499 51.36C252.509 49.5893 252.856 48.0213 253.539 46.656C254.232 45.28 255.213 44.2027 256.483 43.424C257.752 42.6347 259.261 42.24 261.011 42.24C262.973 42.24 264.632 42.736 265.987 43.728C267.352 44.7093 268.243 46.0533 268.659 47.76L264.819 48.8C264.52 47.872 264.024 47.152 263.331 46.64C262.637 46.1173 261.848 45.856 260.963 45.856C259.96 45.856 259.133 46.096 258.483 46.576C257.832 47.0453 257.352 47.696 257.043 48.528C256.733 49.36 256.579 50.304 256.579 51.36C256.579 53.0027 256.947 54.3307 257.683 55.344C258.419 56.3573 259.512 56.864 260.963 56.864C261.987 56.864 262.792 56.6293 263.379 56.16C263.976 55.6907 264.424 55.0133 264.723 54.128L268.659 55.008C268.125 56.768 267.192 58.1227 265.859 59.072C264.525 60.0107 262.893 60.48 260.963 60.48ZM271.865 60V42.72H275.273V46.928L274.857 46.384C275.07 45.808 275.353 45.2853 275.705 44.816C276.068 44.336 276.5 43.9413 277.001 43.632C277.428 43.344 277.897 43.12 278.409 42.96C278.932 42.7893 279.465 42.688 280.009 42.656C280.553 42.6133 281.081 42.6347 281.593 42.72V46.32C281.081 46.1707 280.489 46.1227 279.817 46.176C279.156 46.2293 278.558 46.416 278.025 46.736C277.492 47.024 277.054 47.392 276.713 47.84C276.382 48.288 276.137 48.8 275.977 49.376C275.817 49.9413 275.737 50.5547 275.737 51.216V60H271.865ZM292.19 60.48C290.44 60.48 288.904 60.1013 287.582 59.344C286.259 58.5867 285.224 57.536 284.478 56.192C283.742 54.848 283.374 53.3013 283.374 51.552C283.374 49.664 283.736 48.0267 284.462 46.64C285.187 45.2427 286.195 44.16 287.486 43.392C288.776 42.624 290.27 42.24 291.966 42.24C293.758 42.24 295.278 42.6613 296.526 43.504C297.784 44.336 298.718 45.5147 299.326 47.04C299.934 48.5653 300.163 50.3627 300.014 52.432H296.19V51.024C296.179 49.1467 295.848 47.776 295.198 46.912C294.547 46.048 293.523 45.616 292.126 45.616C290.547 45.616 289.374 46.1067 288.606 47.088C287.838 48.0587 287.454 49.4827 287.454 51.36C287.454 53.1093 287.838 54.464 288.606 55.424C289.374 56.384 290.494 56.864 291.966 56.864C292.915 56.864 293.731 56.656 294.414 56.24C295.107 55.8133 295.64 55.2 296.014 54.4L299.822 55.552C299.16 57.1093 298.136 58.32 296.75 59.184C295.374 60.048 293.854 60.48 292.19 60.48ZM286.238 52.432V49.52H298.126V52.432H286.238ZM310.512 60.48C308.922 60.48 307.536 60.08 306.352 59.28C305.168 58.48 304.25 57.392 303.6 56.016C302.949 54.64 302.624 53.088 302.624 51.36C302.624 49.6107 302.949 48.0533 303.6 46.688C304.261 45.312 305.194 44.2293 306.4 43.44C307.605 42.64 309.024 42.24 310.656 42.24C312.298 42.24 313.674 42.64 314.784 43.44C315.904 44.2293 316.752 45.312 317.328 46.688C317.904 48.064 318.192 49.6213 318.192 51.36C318.192 53.0773 317.904 54.6293 317.328 56.016C316.752 57.392 315.893 58.48 314.752 59.28C313.61 60.08 312.197 60.48 310.512 60.48ZM311.104 57.024C312.138 57.024 312.97 56.7893 313.6 56.32C314.24 55.84 314.704 55.1733 314.992 54.32C315.29 53.4667 315.44 52.48 315.44 51.36C315.44 50.2293 315.29 49.2427 314.992 48.4C314.704 47.5467 314.25 46.8853 313.632 46.416C313.013 45.936 312.213 45.696 311.232 45.696C310.197 45.696 309.344 45.952 308.672 46.464C308 46.9653 307.504 47.648 307.184 48.512C306.864 49.3653 306.704 50.3147 306.704 51.36C306.704 52.416 306.858 53.376 307.168 54.24C307.488 55.0933 307.973 55.7707 308.624 56.272C309.274 56.7733 310.101 57.024 311.104 57.024ZM315.44 60V47.872H314.96V36.96H318.848V60H315.44ZM323.654 40.096V36.56H327.51V40.096H323.654ZM323.654 60V42.72H327.51V60H323.654ZM342.431 60C341.289 60.2133 340.169 60.304 339.071 60.272C337.983 60.2507 337.007 60.0533 336.143 59.68C335.279 59.296 334.623 58.6933 334.174 57.872C333.78 57.1253 333.572 56.3627 333.551 55.584C333.529 54.8053 333.519 53.9253 333.519 52.944V37.92H337.359V52.72C337.359 53.4133 337.364 54.0213 337.375 54.544C337.396 55.0667 337.508 55.4933 337.711 55.824C338.095 56.464 338.708 56.8213 339.551 56.896C340.393 56.9707 341.353 56.928 342.431 56.768V60ZM330.383 45.744V42.72H342.431V45.744H330.383ZM352.818 60.48C350.685 60.48 348.952 60 347.618 59.04C346.285 58.08 345.474 56.7307 345.186 54.992L349.122 54.384C349.325 55.2373 349.773 55.9093 350.466 56.4C351.16 56.8907 352.034 57.136 353.09 57.136C354.018 57.136 354.733 56.9547 355.234 56.592C355.746 56.2187 356.002 55.712 356.002 55.072C356.002 54.6773 355.906 54.3627 355.714 54.128C355.533 53.8827 355.128 53.648 354.498 53.424C353.869 53.2 352.904 52.9173 351.602 52.576C350.152 52.192 349 51.7813 348.146 51.344C347.293 50.896 346.68 50.368 346.306 49.76C345.933 49.152 345.746 48.416 345.746 47.552C345.746 46.4747 346.029 45.536 346.594 44.736C347.16 43.936 347.949 43.3227 348.962 42.896C349.976 42.4587 351.17 42.24 352.546 42.24C353.89 42.24 355.08 42.448 356.114 42.864C357.16 43.28 358.002 43.872 358.642 44.64C359.282 45.408 359.677 46.3093 359.826 47.344L355.89 48.048C355.794 47.312 355.458 46.7307 354.882 46.304C354.317 45.8773 353.56 45.6373 352.61 45.584C351.704 45.5307 350.973 45.6693 350.418 46C349.864 46.32 349.586 46.7733 349.586 47.36C349.586 47.6907 349.698 47.9733 349.922 48.208C350.146 48.4427 350.594 48.6773 351.266 48.912C351.949 49.1467 352.962 49.4347 354.306 49.776C355.682 50.128 356.781 50.5333 357.602 50.992C358.434 51.44 359.032 51.9787 359.394 52.608C359.768 53.2373 359.954 54 359.954 54.896C359.954 56.6347 359.32 58 358.05 58.992C356.792 59.984 355.048 60.48 352.818 60.48Z" fill="white"/>
<defs>
<linearGradient id="paint0_linear_3877_6381" x1="-7.50233e-07" y1="90.4459" x2="425.813" y2="79.1529" gradientUnits="userSpaceOnUse">
<stop stop-color="#A94C3C"/>
<stop offset="1" stop-color="#A95B3C"/>
</linearGradient>
<linearGradient id="paint1_linear_3877_6381" x1="213.991" y1="96" x2="213.991" y2="-3.39985e-06" gradientUnits="userSpaceOnUse">
<stop stop-color="#FFA73C"/>
<stop offset="1" stop-color="#FF5255"/>
</linearGradient>
</defs>
</svg>
