<svg width="1em" height="1em" viewBox="0 0 18 18" fill="none" xmlns="http://www.w3.org/2000/svg">
<rect x="1" y="1" width="16" height="15.9999" rx="7.99997" fill="url(#paint0_linear_956_8948)"/>
<path d="M8.73554 5.0079C8.8273 4.72887 8.87331 4.58938 8.94924 4.56388C8.98222 4.55276 9.01793 4.55276 9.0509 4.56388C9.12683 4.58938 9.1729 4.72887 9.26461 5.0079C9.64896 6.17655 9.84113 6.76085 10.2036 7.22376C10.3707 7.437 10.563 7.62925 10.7763 7.79635C11.2392 8.15894 11.8235 8.35116 12.9922 8.73546C13.2712 8.82722 13.4107 8.87315 13.4362 8.94907C13.4474 8.98207 13.4474 9.01784 13.4362 9.05083C13.4107 9.1268 13.2712 9.17268 12.9922 9.26449C11.8235 9.64879 11.2392 9.84096 10.7763 10.2036C10.563 10.3707 10.3707 10.563 10.2036 10.7762C9.84113 11.2391 9.64896 11.8234 9.26461 12.992C9.1729 13.271 9.12683 13.4106 9.0509 13.4361C9.01792 13.4471 8.98223 13.4471 8.94924 13.4361C8.87331 13.4106 8.8273 13.271 8.73554 12.992C8.35119 11.8234 8.15901 11.2391 7.79647 10.7762C7.6294 10.5629 7.43714 10.3707 7.22388 10.2036C6.76097 9.84096 6.17667 9.64879 5.00802 9.26449C4.729 9.17268 4.58951 9.1268 4.564 9.05083C4.55289 9.01782 4.55289 8.98208 4.564 8.94907C4.58951 8.87315 4.729 8.82722 5.00802 8.73546C6.17667 8.35116 6.76097 8.15894 7.22388 7.79635C7.43714 7.62927 7.6294 7.43702 7.79647 7.22376C8.15901 6.76085 8.35119 6.17655 8.73554 5.0079Z" fill="white"/>
<defs>
<linearGradient id="paint0_linear_956_8948" x1="1" y1="1" x2="20.1352" y2="11.0018" gradientUnits="userSpaceOnUse">
<stop stop-color="#FFA73C"/>
<stop offset="0.966346" stop-color="#FF5255"/>
</linearGradient>
</defs>
</svg>
