<svg width="32" height="32" viewBox="0 0 32 32" fill="none" xmlns="http://www.w3.org/2000/svg">
<path fill-rule="evenodd" clip-rule="evenodd" d="M27.4314 23.0865C27.4314 20.2419 25.7419 18.2453 23.3585 17.3929C22.5004 17.0873 21.559 16.9285 20.5696 16.9285L19.2279 18.5639L11.1557 28.4007L11.2613 22.8104C11.3181 19.7644 10.2453 18.1247 7.09167 18.1507L5.15548 18.1637L14.1691 6.3469L14.1913 13.1933C14.1993 15.4519 15.383 16.8078 17.7984 16.9285C20.9955 16.9285 23.6087 14.3677 23.6087 11.2436C23.6087 8.11513 20.9955 5.55957 17.7984 5.55957H8.67188C6.78626 5.55957 5.84345 5.55957 5.25766 6.14536C4.67188 6.73114 4.67188 7.67395 4.67188 9.55957V25.2445C4.67188 27.1301 4.67188 28.0729 5.25766 28.6587C5.84345 29.2445 6.78626 29.2445 8.67188 29.2445H21.1366C24.599 29.2445 27.4314 26.4728 27.4314 23.0865Z" fill="url(#paint0_linear_3406_6260)"/>
<path d="M24.9326 0.650635C25.2625 3.07517 27.3071 4.95474 29.7635 4.95495C27.3074 4.95516 25.2629 6.83431 24.9326 9.25842C24.6022 6.83436 22.5576 4.95526 20.1016 4.95495C22.5579 4.95465 24.6026 3.07512 24.9326 0.650635Z" fill="url(#paint1_linear_3406_6260)"/>
<defs>
<linearGradient id="paint0_linear_3406_6260" x1="4.67188" y1="5.55957" x2="32.3461" y2="19.4595" gradientUnits="userSpaceOnUse">
<stop stop-color="#FFA73C"/>
<stop offset="0.966346" stop-color="#FF5255"/>
</linearGradient>
<linearGradient id="paint1_linear_3406_6260" x1="20.1016" y1="0.650635" x2="31.0463" y2="7.07198" gradientUnits="userSpaceOnUse">
<stop stop-color="#FFA73C"/>
<stop offset="0.966346" stop-color="#FF5255"/>
</linearGradient>
</defs>
</svg>
