<svg width="12" height="12" viewBox="0 0 12 12" fill="none" xmlns="http://www.w3.org/2000/svg">
<g clip-path="url(#clip0_3991_11)">
<path d="M6.26691 0.813141C9.01141 0.952141 11.1939 3.22164 11.1939 6.00014L11.1934 6.01164C10.8816 5.81149 10.536 5.66985 10.1734 5.59364C10.091 4.74827 9.75392 3.94783 9.20668 3.29824C8.65943 2.64865 7.92785 2.18053 7.10874 1.95582C6.28962 1.73111 5.42159 1.7604 4.61949 2.03982C3.81739 2.31924 3.11903 2.83561 2.61682 3.52062C2.11461 4.20562 1.83222 5.02696 1.80702 5.87596C1.78183 6.72497 2.015 7.56161 2.4757 8.27519C2.9364 8.98877 3.6029 9.54566 4.38702 9.87216C5.17114 10.1987 6.03591 10.2794 6.86691 10.1036C7.04934 10.4257 7.28813 10.7124 7.57191 10.9501C7.07591 11.1071 6.54791 11.1941 5.99991 11.1941L5.73241 11.1871C3.07691 11.0521 0.947408 8.92314 0.812908 6.26714L0.805908 6.00014C0.805908 3.13164 3.13141 0.806641 5.99991 0.806641L6.26691 0.813141ZM9.47941 7.28814C9.5072 7.22211 9.55386 7.16574 9.61354 7.12611C9.67322 7.08648 9.74327 7.06533 9.81491 7.06533C9.88655 7.06533 9.9566 7.08648 10.0163 7.12611C10.076 7.16574 10.1226 7.22211 10.1504 7.28814C10.3796 7.82937 10.8082 8.26171 11.3474 8.49564C11.413 8.52439 11.4688 8.57161 11.5079 8.63155C11.5471 8.69149 11.568 8.76154 11.568 8.83314C11.568 8.90474 11.5471 8.97479 11.5079 9.03473C11.4688 9.09467 11.413 9.14189 11.3474 9.17064C10.8083 9.40441 10.3797 9.83657 10.1504 10.3776C10.1226 10.4437 10.076 10.5 10.0163 10.5397C9.9566 10.5793 9.88655 10.6004 9.81491 10.6004C9.74327 10.6004 9.67322 10.5793 9.61354 10.5397C9.55386 10.5 9.5072 10.4437 9.47941 10.3776C9.25013 9.83657 8.82155 9.40441 8.28241 9.17064C8.21683 9.14189 8.16105 9.09467 8.12188 9.03473C8.08271 8.97479 8.06185 8.90474 8.06185 8.83314C8.06185 8.76154 8.08271 8.69149 8.12188 8.63155C8.16105 8.57161 8.21683 8.52439 8.28241 8.49564C8.82161 8.26171 9.2502 7.82937 9.47941 7.28814ZM5.31691 4.25814C5.53891 4.23464 5.80991 4.39114 6.35191 4.70364L6.94691 5.04764C7.48791 5.36014 7.75841 5.51664 7.84941 5.72064C7.88871 5.80858 7.90902 5.90382 7.90902 6.00014C7.90902 6.09646 7.88871 6.1917 7.84941 6.27964C7.75891 6.48364 7.48841 6.64014 6.94691 6.95314L6.35191 7.29664C5.80991 7.60914 5.53891 7.76514 5.31691 7.74164C5.22111 7.73167 5.12848 7.70168 5.04502 7.65361C4.96155 7.60555 4.88912 7.54049 4.83241 7.46264C4.70141 7.28214 4.70141 6.96914 4.70141 6.34414V5.65664C4.70141 5.03164 4.70141 4.71864 4.83241 4.53764C4.94741 4.38014 5.12341 4.27914 5.31691 4.25814Z" fill="black"/>
</g>
<defs>
<clipPath id="clip0_3991_11">
<rect width="12" height="12" fill="white"/>
</clipPath>
</defs>
</svg>
