<svg width="24" height="24" viewBox="0 0 24 24" fill="none" xmlns="http://www.w3.org/2000/svg">
<path d="M3.22347 19.3204L2.45375 20.0247L2.45376 20.0248L3.22347 19.3204ZM5.64471 11.9685L4.88058 11.3919L4.88058 11.3919L5.64471 11.9685ZM8.51113 8.92628L7.86663 8.22195L7.86663 8.22196L8.51113 8.92628ZM9.97626 7.67194L10.5629 8.42574L10.563 8.42572L9.97626 7.67194ZM11.79 6.34394L12.297 7.15597L12.297 7.15595L11.79 6.34394ZM13.646 5.23754L14.0516 6.10969L14.0516 6.10967L13.646 5.23754ZM14.9651 4.62126L15.2737 5.53842L15.2737 5.5384L14.9651 4.62126ZM19.3325 4.57968L18.5628 5.28399L18.5628 5.28403L19.3325 4.57968ZM8.68471 18.7785L8.29374 17.8988C7.12663 18.4887 6.118 18.8156 5.34506 18.9003C4.56293 18.9861 4.1746 18.8144 3.99317 18.6161L3.22347 19.3204L2.45376 20.0248C3.18071 20.8192 4.28678 21.0012 5.39006 20.8803C6.50254 20.7583 7.77033 20.3178 9.07568 19.6581L8.68471 18.7785ZM3.22347 19.3204L3.99318 18.6161C3.76121 18.3626 3.61156 17.7631 4.01014 16.5847C4.3923 15.4548 5.20556 14.0461 6.40884 12.5451L5.64471 11.9685L4.88058 11.3919C3.57619 13.019 2.60183 14.6557 2.11179 16.1045C1.63817 17.5047 1.53173 19.0171 2.45375 20.0247L3.22347 19.3204ZM5.64471 11.9685L6.40884 12.5452C7.18361 11.5787 8.10759 10.5896 9.15563 9.63061L8.51113 8.92628L7.86663 8.22196C6.7365 9.25609 5.73177 10.3301 4.88058 11.3919L5.64471 11.9685ZM8.51113 8.92628L9.15563 9.63061C9.62233 9.20356 10.093 8.80131 10.5629 8.42574L9.97626 7.67194L9.38958 6.91814C8.87972 7.32566 8.37045 7.76093 7.86663 8.22195L8.51113 8.92628ZM9.97626 7.67194L10.563 8.42572C11.146 7.95968 11.7271 7.53534 12.297 7.15597L11.79 6.34394L11.283 5.53191C10.6563 5.94916 10.0221 6.41259 9.38955 6.91816L9.97626 7.67194ZM11.79 6.34394L12.297 7.15595C12.8998 6.75462 13.4883 6.40482 14.0516 6.10969L13.646 5.23754L13.2405 4.36539C12.6018 4.70001 11.9457 5.09073 11.283 5.53192L11.79 6.34394ZM13.646 5.23754L14.0516 6.10967C14.4766 5.88697 14.8854 5.69634 15.2737 5.53842L14.9651 4.62126L14.6566 3.7041C14.1959 3.89146 13.7223 4.11294 13.2405 4.36541L13.646 5.23754ZM14.9651 4.62126L15.2737 5.5384C16.1912 5.16517 16.9565 4.98965 17.5346 4.97813C18.1088 4.96668 18.4077 5.11453 18.5628 5.28399L19.3325 4.57968L20.1023 3.87537C19.4866 3.20251 18.5928 2.96802 17.6715 2.98638C16.754 3.00467 15.721 3.27109 14.6565 3.70412L14.9651 4.62126ZM19.3325 4.57968L18.5628 5.28403C18.7167 5.45213 18.8366 5.7589 18.7781 6.32066C18.7191 6.88665 18.4839 7.62259 18.0415 8.4922C17.1592 10.2267 15.5497 12.3027 13.4004 14.2694L14.0449 14.9738L14.6894 15.6781C16.9885 13.5743 18.787 11.2882 19.8184 9.26078C20.3328 8.24944 20.681 7.25446 20.7751 6.35102C20.8697 5.44336 20.7125 4.5422 20.1022 3.87534L19.3325 4.57968ZM14.0449 14.9738L13.4004 14.2694C13.0413 14.598 12.68 14.9118 12.3184 15.2101L12.9188 15.9528L13.5191 16.6955C13.911 16.3722 14.3018 16.0328 14.6894 15.6781L14.0449 14.9738Z" fill="black"/>
<path d="M4.59429 4.57968L5.23879 5.28402L5.23879 5.28402L4.59429 4.57968ZM8.03411 14.9738L7.26439 15.6781L7.26439 15.6781L8.03411 14.9738ZM18.0828 19.3204L18.7273 20.0248L18.7274 20.0247L18.0828 19.3204ZM14.643 8.92629L15.4127 8.22196L15.4127 8.22195L14.643 8.92629ZM9.72765 4.996L10.2592 4.1078C9.11666 3.50295 7.97421 3.10472 6.9241 3.0082C5.87945 2.91217 4.7879 3.10845 3.9498 3.87535L4.59429 4.57968L5.23879 5.28402C5.44821 5.09238 5.84465 4.92579 6.56546 4.99205C7.28081 5.0578 8.18128 5.34699 9.19608 5.88421L9.72765 4.996ZM4.59429 4.57968L3.9498 3.87535C3.22102 4.54222 2.90361 5.44338 2.83683 6.35103C2.77035 7.25446 2.94163 8.24944 3.27632 9.26078C3.94729 11.2882 5.33929 13.5743 7.26439 15.6781L8.03411 14.9738L8.80382 14.2694C7.00419 12.3027 5.7638 10.2267 5.1898 8.4922C4.90201 7.62258 4.79765 6.88664 4.8393 6.32065C4.88063 5.75888 5.05508 5.45212 5.23879 5.28402L4.59429 4.57968ZM8.03411 14.9738L7.26439 15.6781C9.18951 17.7819 11.3433 19.3709 13.3034 20.2187C14.2811 20.6416 15.257 20.9003 16.1628 20.9141C17.0728 20.928 17.9985 20.6916 18.7273 20.0248L18.0828 19.3204L17.4384 18.6161C17.2546 18.7842 16.9336 18.9308 16.3704 18.9222C15.8029 18.9136 15.0791 18.7445 14.2384 18.3808C12.5615 17.6555 10.6035 16.2361 8.80382 14.2694L8.03411 14.9738ZM18.0828 19.3204L18.7274 20.0247C19.4561 19.3578 19.7735 18.4567 19.8403 17.549C19.9068 16.6456 19.7355 15.6506 19.4008 14.6393C18.7298 12.6118 17.3378 10.3258 15.4127 8.22196L14.643 8.92629L13.8732 9.63061C15.6729 11.5973 16.9133 13.6734 17.4873 15.4079C17.7751 16.2775 17.8795 17.0134 17.8378 17.5794C17.7965 18.1412 17.622 18.448 17.4383 18.6161L18.0828 19.3204ZM14.643 8.92629L15.4127 8.22195C15.012 7.78413 14.6024 7.3695 14.1874 6.97977L13.4642 7.73117L12.7409 8.48256C13.1234 8.84177 13.5021 9.22498 13.8733 9.63062L14.643 8.92629Z" fill="black"/>
</svg>
