<svg width="24" height="24" viewBox="0 0 24 24" fill="none" xmlns="http://www.w3.org/2000/svg">
<path fill-rule="evenodd" clip-rule="evenodd" d="M21.372 19.9429C21.276 21.0429 20.302 21.9349 19.197 21.9349H3.19704L3.37204 19.9429H19.372L20.2 10.4789H22.2L21.372 19.9429ZM12.092 5.99589H4.59204L3.41504 19.4449H1.41504L2.59204 5.99589C2.68804 4.89589 3.66204 4.00389 4.76704 4.00389H12.267L12.092 5.99589ZM15.657 11.4999L18.626 16.6429L17.76 17.1429L16.894 17.6429L14.576 13.6279L12.498 15.7079L11.918 16.2879L11.236 15.8319L9.34604 14.5719L6.07004 17.8499L4.65604 16.4359L9.09304 11.9989L9.77504 12.4539L11.665 13.7139L14.085 11.2939L15.005 10.3709L15.657 11.4999ZM8.41104 7.98989C9.28504 7.98989 9.93404 8.69589 9.85704 9.56689C9.78104 10.4369 9.01004 11.1429 8.13604 11.1439C7.93359 11.1479 7.73262 11.1087 7.54649 11.029C7.36036 10.9493 7.19334 10.8309 7.05654 10.6816C6.91974 10.5323 6.8163 10.3556 6.75311 10.1632C6.68992 9.97084 6.66842 9.76721 6.69004 9.56589C6.7347 9.13815 6.93442 8.74157 7.25149 8.45103C7.56856 8.16049 7.98104 7.99709 8.41104 7.98989ZM18.421 0.719887C18.564 0.446887 18.952 0.446887 19.047 0.719887L19.384 1.68889C19.5841 2.27107 19.8995 2.80696 20.3113 3.26451C20.7232 3.72206 21.223 4.09188 21.781 4.35189L22.619 4.74389C22.876 4.86389 22.843 5.24389 22.564 5.36389L21.614 5.77589C20.4111 6.30047 19.4173 7.21115 18.79 8.36389L18.297 9.27389C18.153 9.54089 17.773 9.54089 17.675 9.27389L17.341 8.36389C17.1354 7.7978 16.8201 7.27783 16.4133 6.83375C16.0064 6.38966 15.516 6.03018 14.97 5.77589L14.09 5.36389C13.834 5.24389 13.867 4.86389 14.146 4.74389L15.051 4.35189C16.2807 3.81563 17.2909 2.87634 17.915 1.68889L18.421 0.719887Z" fill="black"/>
</svg>
