<svg width="24" height="24" viewBox="0 0 24 24" fill="none" xmlns="http://www.w3.org/2000/svg">
<path d="M20.5501 7.14603C21.9101 6.49203 23.3681 7.43603 23.2411 8.89003L22.4931 17.443C22.3701 18.847 20.8431 19.793 19.5991 19.236L18.9461 18.946L18.9231 19.211C18.8051 20.553 17.6181 21.641 16.2711 21.641H3.2101L3.3841 19.649H16.4441C16.5634 19.6468 16.6779 19.601 16.7659 19.5204C16.8539 19.4397 16.9094 19.3297 16.9221 19.211L17.2111 15.915L18.5551 16.515L20.4971 17.384L21.2341 8.95403L19.1841 9.94003L18.4391 8.16003L20.5501 7.14603ZM9.5781 6.69803H4.4581C4.33841 6.70007 4.22362 6.74585 4.13537 6.82672C4.04713 6.9076 3.99154 7.01798 3.9791 7.13703L2.9231 19.21H0.923096L1.9791 7.13703C2.0981 5.79503 3.2861 4.70703 4.6331 4.70703H9.7521L9.5781 6.69803ZM14.3381 12.963L9.7831 17.137L8.4321 15.662L11.5121 12.84L8.9821 10.078L10.4571 8.72703L14.3381 12.963Z" fill="black"/>
<path d="M16.047 0.720863C16.19 0.447863 16.579 0.447863 16.674 0.720863L16.931 1.46186C17.1312 2.04414 17.4467 2.58008 17.8588 3.03763C18.2708 3.49519 18.7708 3.86497 19.329 4.12486L19.956 4.41886C20.213 4.53886 20.18 4.91886 19.902 5.03886L19.178 5.35186C17.9751 5.87644 16.9813 6.78713 16.354 7.93986L15.979 8.63286C15.835 8.89986 15.455 8.89986 15.357 8.63286L15.103 7.93986C14.8974 7.37378 14.5821 6.85381 14.1753 6.40972C13.7684 5.96564 13.278 5.60616 12.732 5.35186L12.063 5.03886C11.806 4.91886 11.839 4.53886 12.118 4.41886L12.796 4.12486C14.0266 3.58997 15.0372 2.6503 15.66 1.46186L16.047 0.720863Z" fill="black"/>
</svg>
