<svg width="142" height="142" viewBox="0 0 142 142" fill="none" xmlns="http://www.w3.org/2000/svg">
<g clip-path="url(#clip0_3862_159)">
<path fill-rule="evenodd" clip-rule="evenodd" d="M118.822 107.435C118.822 94.7007 111.259 85.7633 100.59 81.9474C96.749 80.5796 92.5345 79.8685 88.1055 79.8685L82.0996 87.1894L45.9645 131.224L46.4372 106.199C46.6914 92.5635 41.889 85.2231 27.7719 85.3397L19.1045 85.398L59.4541 32.5L59.5534 63.1477C59.5891 73.2586 64.888 79.3283 75.7004 79.8685C90.0122 79.8685 101.71 68.4052 101.71 54.4201C101.71 40.4155 90.0122 28.9756 75.7004 28.9756H34.8457C26.4047 28.9756 22.1842 28.9756 19.562 31.5979C16.9397 34.2201 16.9397 38.4406 16.9397 46.8815V117.095C16.9397 125.536 16.9397 129.756 19.562 132.379C22.1842 135.001 26.4047 135.001 34.8457 135.001H90.6437C106.143 135.001 118.822 122.593 118.822 107.435Z" fill="url(#paint0_linear_3862_159)"/>
<path d="M107.625 7.00037C109.102 17.8538 118.255 26.2677 129.251 26.2686C118.256 26.2696 109.104 34.6815 107.625 45.533C106.146 34.6817 96.9938 26.27 85.9993 26.2686C96.9951 26.2672 106.148 17.8535 107.625 7.00037Z" fill="url(#paint1_linear_3862_159)"/>
</g>
<defs>
<linearGradient id="paint0_linear_3862_159" x1="16.9397" y1="28.9756" x2="140.823" y2="91.1983" gradientUnits="userSpaceOnUse">
<stop stop-color="#FFA73C"/>
<stop offset="0.966346" stop-color="#FF5255"/>
</linearGradient>
<linearGradient id="paint1_linear_3862_159" x1="85.9993" y1="7.00037" x2="134.993" y2="35.7455" gradientUnits="userSpaceOnUse">
<stop stop-color="#FFA73C"/>
<stop offset="0.966346" stop-color="#FF5255"/>
</linearGradient>
<clipPath id="clip0_3862_159">
<rect width="128" height="128" fill="white" transform="translate(7 7)"/>
</clipPath>
</defs>
</svg>
