<svg width="24" height="24" viewBox="0 0 24 24" fill="none" xmlns="http://www.w3.org/2000/svg">
<path fill-rule="evenodd" clip-rule="evenodd" d="M17.1578 13.2055C17.3008 12.9315 17.6908 12.9315 17.7858 13.2055L18.0428 13.9455C18.2429 14.528 18.5583 15.0641 18.9704 15.5218C19.3824 15.9796 19.8825 16.3495 20.4408 16.6095L21.0678 16.9025C21.3248 17.0225 21.2918 17.4025 21.0128 17.5225L20.2908 17.8355C19.0878 18.3601 18.0941 19.2708 17.4668 20.4235L17.0918 21.1175C16.9468 21.3835 16.5668 21.3835 16.4688 21.1175L16.2158 20.4235C16.01 19.8573 15.6946 19.3373 15.2876 18.8932C14.8806 18.4491 14.3899 18.0897 13.8438 17.8355L13.1758 17.5225C12.9178 17.4025 12.9508 17.0225 13.2288 16.9025L13.9078 16.6095C15.1374 16.0732 16.1476 15.134 16.7718 13.9465L17.1578 13.2055Z" fill="black"/>
<path d="M2.4165 5.98438L2.32796 6.98045L22.328 6.98045L22.4165 5.98437L22.505 4.9883L2.50504 4.9883L2.4165 5.98438Z" fill="black"/>
<path d="M1.354 17.937L1.26546 18.9331L10.2655 18.9331L10.354 17.937L10.4425 16.9409L1.44254 16.9409L1.354 17.937Z" fill="black"/>
<path d="M5 21.9214L6 21.9214L7.77079 1.99993L6.77079 1.99993L5.77079 1.99993L4 21.9214L5 21.9214Z" fill="black"/>
<path d="M17.9739 10.9648L18.9739 10.9648L19.7707 2.00019L18.7707 2.00019L17.7707 2.00019L16.9739 10.9648L17.9739 10.9648Z" fill="black"/>
</svg>
