<svg width="24" height="24" viewBox="0 0 24 24" fill="none" xmlns="http://www.w3.org/2000/svg">
<g clip-path="url(#clip0_3868_41)">
<path d="M10.9269 4.45506C6.56989 4.77206 2.84089 8.37106 2.45689 12.7651L2.43089 13.1821C2.35189 15.2551 3.05089 17.1261 4.28389 18.5331L5.28189 19.6721L4.30489 20.9971L4.28489 21.0231L9.98889 21.0931L10.0689 21.0961H10.1059C13.4499 21.0911 16.5079 19.1321 18.0909 16.2931L19.0229 14.6201L20.6999 15.2751L21.3029 15.5101L21.8649 9.07706L20.7949 9.46906L19.1549 10.0671L18.4329 8.60206C18.3885 8.51355 18.3425 8.42586 18.2949 8.33906L20.9119 7.36306L22.7189 6.70406C23.3939 6.45806 24.0519 6.93906 23.9909 7.63606L23.1759 16.9531C23.1149 17.6501 22.3729 18.1331 21.7399 17.8861L19.8279 17.1391C17.8679 20.6541 14.0729 23.0891 9.91889 23.0891L9.78989 23.0861L9.79689 23.0901H2.21589C1.42289 23.0901 1.02089 22.2141 1.51089 21.5521L2.72089 19.9131C1.09489 18.0581 0.213886 15.5401 0.456886 12.7651C0.936885 7.27006 5.63989 2.77906 11.1019 2.45906L10.9269 4.45506ZM14.3709 12.8261L9.61689 17.1831L8.26689 15.7081L11.5459 12.7021L8.84889 9.76006L10.3229 8.41006L14.3709 12.8261ZM16.7769 0.296059C16.9199 0.0230586 17.3089 0.0230586 17.4039 0.296059L17.6609 1.03806C17.8612 1.62043 18.1769 2.15642 18.5891 2.61398C19.0013 3.07154 19.5015 3.44127 20.0599 3.70106L20.6869 3.99406C20.9439 4.11406 20.9099 4.49406 20.6319 4.61406L19.9089 4.92806C18.7059 5.45264 17.7122 6.36332 17.0849 7.51606L16.7099 8.20906C16.5659 8.47606 16.1859 8.47506 16.0879 8.20906L15.8339 7.51606C15.6283 6.94997 15.313 6.43 14.9061 5.98592C14.4993 5.54183 14.0088 5.18235 13.4629 4.92806L12.7939 4.61406C12.5369 4.49406 12.5689 4.11406 12.8479 3.99406L13.5259 3.70106C14.7559 3.16499 15.7665 2.22568 16.3909 1.03806L16.7769 0.296059Z" fill="black"/>
</g>
<defs>
<clipPath id="clip0_3868_41">
<rect width="24" height="24" fill="white"/>
</clipPath>
</defs>
</svg>
