<svg width="24" height="24" viewBox="0 0 24 24" fill="none" xmlns="http://www.w3.org/2000/svg">
<path d="M20.6162 10.835C18.955 10.1278 17.4445 9.10916 16.1662 7.83402C14.3861 6.05035 13.1161 3.82252 12.4882 1.38202C12.4607 1.27363 12.3978 1.17751 12.3095 1.10886C12.2212 1.0402 12.1126 1.00293 12.0007 1.00293C11.8889 1.00293 11.7802 1.0402 11.6919 1.10886C11.6037 1.17751 11.5408 1.27363 11.5132 1.38202C10.884 3.82221 9.6138 6.04978 7.83422 7.83402C6.55585 9.109 5.04537 10.1276 3.38422 10.835C2.73422 11.115 2.06622 11.34 1.38222 11.513C1.27316 11.5398 1.17624 11.6024 1.10695 11.6908C1.03766 11.7792 1 11.8882 1 12.0005C1 12.1128 1.03766 12.2219 1.10695 12.3103C1.17624 12.3986 1.27316 12.4612 1.38222 12.488C2.06622 12.66 2.73222 12.885 3.38422 13.165C5.04546 13.8722 6.55598 14.8909 7.83422 16.166C9.61481 17.9499 10.8852 20.1781 11.5132 22.619C11.54 22.7281 11.6026 22.825 11.691 22.8943C11.7794 22.9636 11.8884 23.0012 12.0007 23.0012C12.113 23.0012 12.2221 22.9636 12.3105 22.8943C12.3988 22.825 12.4614 22.7281 12.4882 22.619C12.6602 21.934 12.8852 21.268 13.1652 20.616C13.8724 18.9548 14.891 17.4442 16.1662 16.166C17.9502 14.3858 20.1784 13.1158 22.6192 12.488C22.7276 12.4605 22.8237 12.3976 22.8924 12.3093C22.961 12.221 22.9983 12.1124 22.9983 12.0005C22.9983 11.8887 22.961 11.78 22.8924 11.6917C22.8237 11.6035 22.7276 11.5406 22.6192 11.513C21.9345 11.3408 21.2647 11.114 20.6162 10.835Z" fill="#3186FF"/>
<path d="M20.6162 10.835C18.955 10.1278 17.4445 9.10916 16.1662 7.83402C14.3861 6.05035 13.1161 3.82252 12.4882 1.38202C12.4607 1.27363 12.3978 1.17751 12.3095 1.10886C12.2212 1.0402 12.1126 1.00293 12.0007 1.00293C11.8889 1.00293 11.7802 1.0402 11.6919 1.10886C11.6037 1.17751 11.5408 1.27363 11.5132 1.38202C10.884 3.82221 9.6138 6.04978 7.83422 7.83402C6.55585 9.109 5.04537 10.1276 3.38422 10.835C2.73422 11.115 2.06622 11.34 1.38222 11.513C1.27316 11.5398 1.17624 11.6024 1.10695 11.6908C1.03766 11.7792 1 11.8882 1 12.0005C1 12.1128 1.03766 12.2219 1.10695 12.3103C1.17624 12.3986 1.27316 12.4612 1.38222 12.488C2.06622 12.66 2.73222 12.885 3.38422 13.165C5.04546 13.8722 6.55598 14.8909 7.83422 16.166C9.61481 17.9499 10.8852 20.1781 11.5132 22.619C11.54 22.7281 11.6026 22.825 11.691 22.8943C11.7794 22.9636 11.8884 23.0012 12.0007 23.0012C12.113 23.0012 12.2221 22.9636 12.3105 22.8943C12.3988 22.825 12.4614 22.7281 12.4882 22.619C12.6602 21.934 12.8852 21.268 13.1652 20.616C13.8724 18.9548 14.891 17.4442 16.1662 16.166C17.9502 14.3858 20.1784 13.1158 22.6192 12.488C22.7276 12.4605 22.8237 12.3976 22.8924 12.3093C22.961 12.221 22.9983 12.1124 22.9983 12.0005C22.9983 11.8887 22.961 11.78 22.8924 11.6917C22.8237 11.6035 22.7276 11.5406 22.6192 11.513C21.9345 11.3408 21.2647 11.114 20.6162 10.835Z" fill="url(#paint0_linear_3870_112)"/>
<path d="M20.6162 10.835C18.955 10.1278 17.4445 9.10916 16.1662 7.83402C14.3861 6.05035 13.1161 3.82252 12.4882 1.38202C12.4607 1.27363 12.3978 1.17751 12.3095 1.10886C12.2212 1.0402 12.1126 1.00293 12.0007 1.00293C11.8889 1.00293 11.7802 1.0402 11.6919 1.10886C11.6037 1.17751 11.5408 1.27363 11.5132 1.38202C10.884 3.82221 9.6138 6.04978 7.83422 7.83402C6.55585 9.109 5.04537 10.1276 3.38422 10.835C2.73422 11.115 2.06622 11.34 1.38222 11.513C1.27316 11.5398 1.17624 11.6024 1.10695 11.6908C1.03766 11.7792 1 11.8882 1 12.0005C1 12.1128 1.03766 12.2219 1.10695 12.3103C1.17624 12.3986 1.27316 12.4612 1.38222 12.488C2.06622 12.66 2.73222 12.885 3.38422 13.165C5.04546 13.8722 6.55598 14.8909 7.83422 16.166C9.61481 17.9499 10.8852 20.1781 11.5132 22.619C11.54 22.7281 11.6026 22.825 11.691 22.8943C11.7794 22.9636 11.8884 23.0012 12.0007 23.0012C12.113 23.0012 12.2221 22.9636 12.3105 22.8943C12.3988 22.825 12.4614 22.7281 12.4882 22.619C12.6602 21.934 12.8852 21.268 13.1652 20.616C13.8724 18.9548 14.891 17.4442 16.1662 16.166C17.9502 14.3858 20.1784 13.1158 22.6192 12.488C22.7276 12.4605 22.8237 12.3976 22.8924 12.3093C22.961 12.221 22.9983 12.1124 22.9983 12.0005C22.9983 11.8887 22.961 11.78 22.8924 11.6917C22.8237 11.6035 22.7276 11.5406 22.6192 11.513C21.9345 11.3408 21.2647 11.114 20.6162 10.835Z" fill="url(#paint1_linear_3870_112)"/>
<path d="M20.6162 10.835C18.955 10.1278 17.4445 9.10916 16.1662 7.83402C14.3861 6.05035 13.1161 3.82252 12.4882 1.38202C12.4607 1.27363 12.3978 1.17751 12.3095 1.10886C12.2212 1.0402 12.1126 1.00293 12.0007 1.00293C11.8889 1.00293 11.7802 1.0402 11.6919 1.10886C11.6037 1.17751 11.5408 1.27363 11.5132 1.38202C10.884 3.82221 9.6138 6.04978 7.83422 7.83402C6.55585 9.109 5.04537 10.1276 3.38422 10.835C2.73422 11.115 2.06622 11.34 1.38222 11.513C1.27316 11.5398 1.17624 11.6024 1.10695 11.6908C1.03766 11.7792 1 11.8882 1 12.0005C1 12.1128 1.03766 12.2219 1.10695 12.3103C1.17624 12.3986 1.27316 12.4612 1.38222 12.488C2.06622 12.66 2.73222 12.885 3.38422 13.165C5.04546 13.8722 6.55598 14.8909 7.83422 16.166C9.61481 17.9499 10.8852 20.1781 11.5132 22.619C11.54 22.7281 11.6026 22.825 11.691 22.8943C11.7794 22.9636 11.8884 23.0012 12.0007 23.0012C12.113 23.0012 12.2221 22.9636 12.3105 22.8943C12.3988 22.825 12.4614 22.7281 12.4882 22.619C12.6602 21.934 12.8852 21.268 13.1652 20.616C13.8724 18.9548 14.891 17.4442 16.1662 16.166C17.9502 14.3858 20.1784 13.1158 22.6192 12.488C22.7276 12.4605 22.8237 12.3976 22.8924 12.3093C22.961 12.221 22.9983 12.1124 22.9983 12.0005C22.9983 11.8887 22.961 11.78 22.8924 11.6917C22.8237 11.6035 22.7276 11.5406 22.6192 11.513C21.9345 11.3408 21.2647 11.114 20.6162 10.835Z" fill="url(#paint2_linear_3870_112)"/>
<defs>
<linearGradient id="paint0_linear_3870_112" x1="7.00022" y1="15.5" x2="11.0002" y2="12" gradientUnits="userSpaceOnUse">
<stop stop-color="#08B962"/>
<stop offset="1" stop-color="#08B962" stop-opacity="0"/>
</linearGradient>
<linearGradient id="paint1_linear_3870_112" x1="8.00022" y1="5.50002" x2="11.5002" y2="11" gradientUnits="userSpaceOnUse">
<stop stop-color="#F94543"/>
<stop offset="1" stop-color="#F94543" stop-opacity="0"/>
</linearGradient>
<linearGradient id="paint2_linear_3870_112" x1="3.50022" y1="13.5" x2="17.5002" y2="12" gradientUnits="userSpaceOnUse">
<stop stop-color="#FABC12"/>
<stop offset="0.46" stop-color="#FABC12" stop-opacity="0"/>
</linearGradient>
</defs>
</svg>
