<svg width="543" height="272" viewBox="0 0 543 272" fill="none" xmlns="http://www.w3.org/2000/svg">
<g clip-path="url(#clip0_3849_628)">
<mask id="mask0_3849_628" style="mask-type:luminance" maskUnits="userSpaceOnUse" x="0" y="0" width="543" height="272">
<path d="M515.85 0H27.15C12.1555 0 0 12.1555 0 27.15V244.35C0 259.345 12.1555 271.5 27.15 271.5H515.85C530.845 271.5 543 259.345 543 244.35V27.15C543 12.1555 530.845 0 515.85 0Z" fill="white"/>
</mask>
<g mask="url(#mask0_3849_628)">
<path d="M51.6121 37.7382C52.3473 31.0949 55.5072 24.9563 60.4867 20.4978C65.4662 16.0393 71.9153 13.5742 78.5992 13.5747H485.523C489.34 13.5764 493.113 14.3826 496.597 15.9407C500.081 17.4989 503.197 19.7741 505.742 22.6178C508.287 25.4614 510.204 28.8098 511.368 32.4443C512.532 36.0789 512.917 39.918 512.497 43.7112L491.388 233.761C490.653 240.404 487.493 246.543 482.513 251.002C477.534 255.46 471.085 257.925 464.401 257.925H57.4901C53.6725 257.925 49.8979 257.12 46.4125 255.563C42.927 254.005 39.8092 251.731 37.2625 248.887C34.7158 246.043 32.7975 242.694 31.6327 239.058C30.468 235.423 30.083 231.583 30.503 227.788L51.6121 37.7382Z" fill="#FF58A6" fill-opacity="0.3"/>
<path d="M51.6121 37.7382C52.3473 31.0949 55.5072 24.9563 60.4867 20.4978C65.4662 16.0393 71.9153 13.5742 78.5992 13.5747H485.523C489.34 13.5764 493.113 14.3826 496.597 15.9407C500.081 17.4989 503.197 19.7741 505.742 22.6178C508.287 25.4614 510.204 28.8098 511.368 32.4443C512.532 36.0789 512.917 39.918 512.497 43.7112L491.388 233.761C490.653 240.404 487.493 246.543 482.513 251.002C477.534 255.46 471.085 257.925 464.401 257.925H57.4901C53.6725 257.925 49.8979 257.12 46.4125 255.563C42.927 254.005 39.8092 251.731 37.2625 248.887C34.7158 246.043 32.7975 242.694 31.6327 239.058C30.468 235.423 30.083 231.583 30.503 227.788L51.6121 37.7382Z" fill="url(#paint0_linear_3849_628)"/>
<path d="M196.349 67.7644C196.458 67.1111 196.76 66.5057 197.218 66.0268C197.467 65.7565 197.769 65.5401 198.105 65.3907C198.442 65.2413 198.805 65.1621 199.173 65.158H218.503C218.842 65.1466 219.179 65.2201 219.482 65.3718C219.786 65.5236 220.047 65.7487 220.241 66.0268C220.675 66.4612 220.825 67.0449 220.675 67.7644L202.648 214.592C202.643 214.959 202.563 215.322 202.414 215.658C202.265 215.994 202.049 216.296 201.779 216.546C201.218 216.975 200.53 217.204 199.824 217.198H180.493C180.175 217.213 179.856 217.163 179.557 217.051C179.259 216.939 178.986 216.767 178.756 216.546C178.321 215.963 178.186 215.325 178.321 214.592L185.923 153.124C185.923 152.405 185.57 152.038 184.837 152.038H158.122C157.402 152.038 157.036 152.405 157.036 153.124L149.434 214.592C149.277 215.338 148.898 216.019 148.348 216.546C148.118 216.767 147.845 216.939 147.546 217.051C147.247 217.163 146.929 217.213 146.61 217.198H127.279C125.691 217.198 124.89 216.329 124.89 214.592L142.918 67.7644C143.044 67.0677 143.433 66.4459 144.004 66.0268C144.253 65.7565 144.555 65.5401 144.891 65.3907C145.228 65.2413 145.591 65.1621 145.959 65.158H165.289C165.628 65.1466 165.965 65.2201 166.268 65.3718C166.572 65.5236 166.833 65.7487 167.027 66.0268C167.461 66.4612 167.611 67.0449 167.461 67.7644L159.859 129.015C159.859 129.734 160.226 130.101 160.945 130.101H187.661C188.394 130.101 188.747 129.734 188.747 129.015L196.349 67.7644ZM262.785 218.936C251.789 218.936 243.101 215.813 236.721 209.596C230.354 203.365 227.178 194.894 227.178 184.184C227.178 183.03 227.314 180.858 227.612 177.668L236.504 104.688C237.956 92.2401 242.816 82.2489 251.056 74.7148C259.473 67.1807 269.749 63.4204 281.912 63.4204C292.908 63.4204 301.596 66.5427 307.976 72.76C314.343 78.8416 317.519 87.1631 317.519 97.738C317.519 99.1905 317.384 101.498 317.085 104.688L308.193 177.668C306.741 190.116 301.813 200.107 293.424 207.641C285.17 215.175 274.948 218.936 262.785 218.936ZM265.391 197.216C270.17 197.216 274.229 195.546 277.555 192.22C280.894 188.745 282.917 184.251 283.636 178.754L292.989 103.602C293.125 102.883 293.207 101.865 293.207 100.562C293.207 95.7832 291.903 92.0094 289.297 89.2672C286.826 86.5115 283.419 85.1404 279.075 85.1404C274.297 85.1404 270.251 86.878 266.925 90.3532C263.735 93.6791 261.767 98.091 261.047 103.602L251.925 178.754C251.768 179.978 251.7 181.212 251.721 182.446C251.721 186.926 252.875 190.55 255.197 193.306C257.64 195.912 261.047 197.216 265.405 197.216H265.391ZM417.906 65.158C418.626 65.158 419.21 65.4431 419.644 66.0268C420.078 66.4612 420.214 67.0449 420.078 67.7644L418.11 84.2716C417.953 85.0177 417.575 85.699 417.024 86.2264C416.796 86.4457 416.525 86.6164 416.229 86.7284C415.932 86.8404 415.617 86.8913 415.3 86.878H388.584C388.001 86.878 387.566 87.2445 387.281 87.964L371.847 214.592C371.689 215.337 371.31 216.018 370.761 216.546C370.53 216.767 370.258 216.939 369.959 217.051C369.66 217.163 369.342 217.213 369.023 217.198H349.475C349.156 217.213 348.838 217.163 348.539 217.051C348.24 216.939 347.967 216.767 347.737 216.546C347.303 215.963 347.167 215.325 347.303 214.592L362.941 87.964C362.941 87.2445 362.588 86.878 361.855 86.878H336.674C336.355 86.8931 336.037 86.8432 335.738 86.7311C335.439 86.6191 335.166 86.4474 334.936 86.2264C334.724 85.9527 334.575 85.6356 334.5 85.2976C334.425 84.9597 334.426 84.6093 334.502 84.2716L336.456 67.7644C336.566 67.1114 336.869 66.5062 337.325 66.0268C337.574 65.7588 337.874 65.5437 338.207 65.3944C338.541 65.2451 338.901 65.1647 339.267 65.158H417.906Z" fill="#FF66AD"/>
<path d="M196.349 67.7644C196.458 67.1111 196.76 66.5057 197.218 66.0268C197.467 65.7565 197.769 65.5401 198.105 65.3907C198.442 65.2413 198.805 65.1621 199.173 65.158H218.503C218.842 65.1466 219.179 65.2201 219.482 65.3718C219.786 65.5236 220.047 65.7487 220.241 66.0268C220.675 66.4612 220.825 67.0449 220.675 67.7644L202.648 214.592C202.643 214.959 202.563 215.322 202.414 215.658C202.265 215.994 202.049 216.296 201.779 216.546C201.218 216.975 200.53 217.204 199.824 217.198H180.493C180.175 217.213 179.856 217.163 179.557 217.051C179.259 216.939 178.986 216.767 178.756 216.546C178.321 215.963 178.186 215.325 178.321 214.592L185.923 153.124C185.923 152.405 185.57 152.038 184.837 152.038H158.122C157.402 152.038 157.036 152.405 157.036 153.124L149.434 214.592C149.277 215.338 148.898 216.019 148.348 216.546C148.118 216.767 147.845 216.939 147.546 217.051C147.247 217.163 146.929 217.213 146.61 217.198H127.279C125.691 217.198 124.89 216.329 124.89 214.592L142.918 67.7644C143.044 67.0677 143.433 66.4459 144.004 66.0268C144.253 65.7565 144.555 65.5401 144.891 65.3907C145.228 65.2413 145.591 65.1621 145.959 65.158H165.289C165.628 65.1466 165.965 65.2201 166.268 65.3718C166.572 65.5236 166.833 65.7487 167.027 66.0268C167.461 66.4612 167.611 67.0449 167.461 67.7644L159.859 129.015C159.859 129.734 160.226 130.101 160.945 130.101H187.661C188.394 130.101 188.747 129.734 188.747 129.015L196.349 67.7644ZM262.785 218.936C251.789 218.936 243.101 215.813 236.721 209.596C230.354 203.365 227.178 194.894 227.178 184.184C227.178 183.03 227.314 180.858 227.612 177.668L236.504 104.688C237.956 92.2401 242.816 82.2489 251.056 74.7148C259.473 67.1807 269.749 63.4204 281.912 63.4204C292.908 63.4204 301.596 66.5427 307.976 72.76C314.343 78.8416 317.519 87.1631 317.519 97.738C317.519 99.1905 317.384 101.498 317.085 104.688L308.193 177.668C306.741 190.116 301.813 200.107 293.424 207.641C285.17 215.175 274.948 218.936 262.785 218.936ZM265.391 197.216C270.17 197.216 274.229 195.546 277.555 192.22C280.894 188.745 282.917 184.251 283.636 178.754L292.989 103.602C293.125 102.883 293.207 101.865 293.207 100.562C293.207 95.7832 291.903 92.0094 289.297 89.2672C286.826 86.5115 283.419 85.1404 279.075 85.1404C274.297 85.1404 270.251 86.878 266.925 90.3532C263.735 93.6791 261.767 98.091 261.047 103.602L251.925 178.754C251.768 179.978 251.7 181.212 251.721 182.446C251.721 186.926 252.875 190.55 255.197 193.306C257.64 195.912 261.047 197.216 265.405 197.216H265.391ZM417.906 65.158C418.626 65.158 419.21 65.4431 419.644 66.0268C420.078 66.4612 420.214 67.0449 420.078 67.7644L418.11 84.2716C417.953 85.0177 417.575 85.699 417.024 86.2264C416.796 86.4457 416.525 86.6164 416.229 86.7284C415.932 86.8404 415.617 86.8913 415.3 86.878H388.584C388.001 86.878 387.566 87.2445 387.281 87.964L371.847 214.592C371.689 215.337 371.31 216.018 370.761 216.546C370.53 216.767 370.258 216.939 369.959 217.051C369.66 217.163 369.342 217.213 369.023 217.198H349.475C349.156 217.213 348.838 217.163 348.539 217.051C348.24 216.939 347.967 216.767 347.737 216.546C347.303 215.963 347.167 215.325 347.303 214.592L362.941 87.964C362.941 87.2445 362.588 86.878 361.855 86.878H336.674C336.355 86.8931 336.037 86.8432 335.738 86.7311C335.439 86.6191 335.166 86.4474 334.936 86.2264C334.724 85.9527 334.575 85.6356 334.5 85.2976C334.425 84.9597 334.426 84.6093 334.502 84.2716L336.456 67.7644C336.566 67.1114 336.869 66.5062 337.325 66.0268C337.574 65.7588 337.874 65.5437 338.207 65.3944C338.541 65.2451 338.901 65.1647 339.267 65.158H417.906Z" fill="white"/>
</g>
</g>
<defs>
<linearGradient id="paint0_linear_3849_628" x1="271.5" y1="325.8" x2="135.75" y2="-13.5753" gradientUnits="userSpaceOnUse">
<stop stop-color="#FFA73C"/>
<stop offset="0.279797" stop-color="#FF5255"/>
<stop offset="0.608733" stop-color="#FF5255"/>
<stop offset="1" stop-color="#FF66AD"/>
</linearGradient>
<clipPath id="clip0_3849_628">
<rect width="543" height="271.5" fill="white"/>
</clipPath>
</defs>
</svg>
