<svg width="24" height="24" viewBox="0 0 24 24" fill="none" xmlns="http://www.w3.org/2000/svg">
<path d="M1.50002 19.824C1.50002 19.276 1.94402 18.832 2.49102 18.832H3.23502C3.49799 18.832 3.75018 18.9365 3.93612 19.1224C4.12206 19.3084 4.22652 19.5606 4.22652 19.8235C4.22652 20.0865 4.12206 20.3387 3.93612 20.5246C3.75018 20.7106 3.49799 20.815 3.23502 20.815H2.49002C2.22719 20.815 1.97513 20.7106 1.78928 20.5248C1.60343 20.3389 1.49902 20.0869 1.49902 19.824H1.50002Z" fill="#F3AD61"/>
<path d="M14.837 13.4996H21.913C22.435 13.4996 22.697 12.8426 22.326 12.4556L20.692 10.7516C20.3944 10.4354 20.0353 10.1834 19.6366 10.0111C19.238 9.83886 18.8083 9.75 18.374 9.75C17.9398 9.75 17.5101 9.83886 17.1115 10.0111C16.7128 10.1834 16.3537 10.4354 16.056 10.7516L14.423 12.4556C14.053 12.8406 14.316 13.4996 14.837 13.4996ZM3.58705 13.4996H10.663C11.184 13.4996 11.447 12.8406 11.077 12.4556L9.44205 10.7516C9.14444 10.4354 8.78526 10.1834 8.38662 10.0111C7.98798 9.83886 7.55831 9.75 7.12405 9.75C6.68978 9.75 6.26011 9.83886 5.86147 10.0111C5.46283 10.1834 5.10366 10.4354 4.80605 10.7516L3.17305 12.4556C2.80305 12.8406 3.06605 13.4996 3.58705 13.4996Z" fill="#F9C23C"/>
<path d="M12.5249 1.5214C16.2149 0.991405 18.4949 10.4444 16.8339 14.2654C15.1719 18.0854 11.5859 18.9224 7.78092 20.4174C7.37367 20.5783 6.93979 20.661 6.50192 20.6614C5.05892 20.6614 4.27492 21.8484 3.72792 20.3794C3.02092 18.4794 3.94792 16.3484 5.79692 15.6224C7.81092 14.8324 8.88092 13.3144 9.68692 11.2584C10.5069 9.16241 10.5639 8.30241 10.5599 6.01741C10.5569 4.19041 10.4369 1.8224 12.5249 1.5214Z" fill="#FEEFC2"/>
<path d="M16.8338 14.2638L9.73876 11.0068C8.92376 12.8798 7.44876 14.3148 5.58276 15.0498C3.42276 15.8978 1.97776 18.2208 3.16076 20.5898C5.52476 25.3168 16.8338 20.5398 16.8338 14.2648V14.2638Z" fill="#FCD53F"/>
<path fill-rule="evenodd" clip-rule="evenodd" d="M13.6799 12.3618C13.9759 12.4558 14.1399 12.7718 14.0449 13.0688C12.5589 17.7188 8.22687 19.8668 4.35587 20.0658C4.28207 20.0696 4.20825 20.0587 4.13863 20.034C4.06902 20.0092 4.00496 19.9709 3.95013 19.9214C3.83939 19.8213 3.77293 19.6814 3.76537 19.5323C3.76163 19.4585 3.77246 19.3847 3.79724 19.3151C3.82203 19.2455 3.86028 19.1814 3.90982 19.1266C4.00987 19.0158 4.14982 18.9494 4.29887 18.9418C7.85187 18.7598 11.6709 16.8038 12.9729 12.7258C12.9954 12.6555 13.0315 12.5903 13.0792 12.5339C13.1269 12.4775 13.1853 12.4311 13.2509 12.3973C13.3166 12.3635 13.3883 12.343 13.4619 12.3369C13.5355 12.3308 13.6095 12.3393 13.6799 12.3618Z" fill="#F9C23C"/>
<path d="M17.4302 19.8496L9.78223 11.0146H16.5352C18.1302 11.0946 19.3812 12.4476 19.3812 14.0876V19.7516C19.3812 20.7486 18.4822 21.0536 17.4302 19.8496Z" fill="#FFF478"/>
</svg>
