<svg width="543" height="272" viewBox="0 0 543 272" fill="none" xmlns="http://www.w3.org/2000/svg">
<g clip-path="url(#clip0_3849_637)">
<mask id="mask0_3849_637" style="mask-type:luminance" maskUnits="userSpaceOnUse" x="0" y="0" width="543" height="272">
<path d="M515.85 0H27.15C12.1555 0 0 12.1555 0 27.15V244.35C0 259.345 12.1555 271.5 27.15 271.5H515.85C530.845 271.5 543 259.345 543 244.35V27.15C543 12.1555 530.845 0 515.85 0Z" fill="white"/>
</mask>
<g mask="url(#mask0_3849_637)">
<path d="M51.6121 37.7382C52.3473 31.0949 55.5072 24.9563 60.4867 20.4978C65.4662 16.0393 71.9153 13.5742 78.5992 13.5747H485.523C489.34 13.5764 493.113 14.3826 496.597 15.9407C500.081 17.4989 503.197 19.7741 505.742 22.6178C508.287 25.4614 510.204 28.8098 511.368 32.4443C512.532 36.0789 512.917 39.918 512.497 43.7112L491.388 233.761C490.653 240.404 487.493 246.543 482.513 251.002C477.534 255.46 471.085 257.925 464.401 257.925H57.4901C53.6725 257.925 49.8979 257.12 46.4125 255.563C42.927 254.005 39.8092 251.731 37.2625 248.887C34.7158 246.043 32.7975 242.694 31.6327 239.058C30.468 235.423 30.083 231.583 30.503 227.788L51.6121 37.7382Z" fill="#00FFE1" fill-opacity="0.2"/>
<path d="M51.6121 37.7382C52.3473 31.0949 55.5072 24.9563 60.4867 20.4978C65.4662 16.0393 71.9153 13.5742 78.5992 13.5747H485.523C489.34 13.5764 493.113 14.3826 496.597 15.9407C500.081 17.4989 503.197 19.7741 505.742 22.6178C508.287 25.4614 510.204 28.8098 511.368 32.4443C512.532 36.0789 512.917 39.918 512.497 43.7112L491.388 233.761C490.653 240.404 487.493 246.543 482.513 251.002C477.534 255.46 471.085 257.925 464.401 257.925H57.4901C53.6725 257.925 49.8979 257.12 46.4125 255.563C42.927 254.005 39.8092 251.731 37.2625 248.887C34.7158 246.043 32.7975 242.694 31.6327 239.058C30.468 235.423 30.083 231.583 30.503 227.788L51.6121 37.7382Z" fill="url(#paint0_linear_3849_637)"/>
<path d="M180.819 67.7643C180.924 67.1126 181.222 66.5073 181.674 66.0267C181.924 65.7564 182.226 65.5399 182.562 65.3906C182.898 65.2412 183.261 65.162 183.629 65.1579H202.743C203.082 65.1465 203.418 65.22 203.722 65.3717C204.025 65.5234 204.286 65.7486 204.48 66.0267C204.915 66.4611 205.064 67.0448 204.915 67.7643L186.887 214.591C186.882 214.959 186.803 215.322 186.653 215.658C186.504 215.994 186.288 216.296 186.018 216.546C185.457 216.975 184.769 217.204 184.063 217.198H162.126C160.687 217.198 159.819 216.478 159.52 215.026L139.551 122.933C139.415 122.499 139.117 122.349 138.682 122.499C138.397 122.499 138.248 122.716 138.248 123.15L127.171 214.591C127.013 215.337 126.634 216.018 126.085 216.546C125.854 216.767 125.582 216.939 125.283 217.051C124.984 217.163 124.666 217.213 124.347 217.198H105.22C103.632 217.198 102.831 216.329 102.831 214.591L120.858 67.7643C120.986 67.068 121.374 66.4467 121.944 66.0267C122.194 65.7564 122.496 65.5399 122.832 65.3906C123.168 65.2412 123.531 65.162 123.899 65.1579H145.402C146.854 65.1579 147.71 65.8774 148.008 67.3299L168.425 158.771C168.425 159.205 168.561 159.423 168.859 159.423C169.065 159.36 169.251 159.249 169.403 159.097C169.554 158.946 169.666 158.759 169.728 158.554L180.819 67.7643ZM299.437 84.2715C299.28 85.0172 298.901 85.6983 298.351 86.2263C298.121 86.4472 297.848 86.619 297.55 86.731C297.251 86.843 296.933 86.893 296.614 86.8779H251.002C250.282 86.8779 249.916 87.2444 249.916 87.9639L244.703 129.015C244.703 129.734 245.07 130.101 245.789 130.101H272.722C273.061 130.089 273.397 130.163 273.701 130.315C274.004 130.466 274.265 130.691 274.459 130.969C274.894 131.404 275.043 131.988 274.894 132.707L272.722 149.431C272.717 149.799 272.637 150.162 272.488 150.498C272.339 150.834 272.123 151.136 271.853 151.386C271.292 151.815 270.604 152.044 269.898 152.038H242.965C242.246 152.038 241.879 152.404 241.879 153.124L236.667 194.392C236.667 195.111 237.033 195.478 237.753 195.478H283.147C283.486 195.466 283.823 195.54 284.127 195.692C284.43 195.843 284.691 196.069 284.885 196.347C285.319 196.781 285.469 197.365 285.319 198.084L283.365 214.591C283.207 215.337 282.828 216.018 282.279 216.546C282.048 216.767 281.776 216.939 281.477 217.051C281.178 217.163 280.86 217.213 280.541 217.198H212.123C210.535 217.198 209.734 216.329 209.734 214.591L227.761 67.7643C227.888 67.0675 228.277 66.4457 228.847 66.0267C229.097 65.7564 229.399 65.5399 229.735 65.3906C230.071 65.2412 230.434 65.162 230.802 65.1579H299.22C299.559 65.1465 299.896 65.22 300.199 65.3717C300.503 65.5234 300.764 65.7486 300.958 66.0267C301.392 66.4611 301.542 67.0448 301.392 67.7643L299.437 84.2715ZM325.691 217.198C323.954 217.198 323.085 216.397 323.085 214.809L313.094 67.9815V67.5471C313.094 65.9588 313.963 65.1579 315.7 65.1579H335.9C337.502 65.1579 338.289 65.9588 338.289 67.5471L341.981 158.119C341.981 158.554 342.117 158.771 342.416 158.771C342.715 158.771 342.932 158.554 343.067 158.119L367.611 67.5471C368.046 65.9588 369.064 65.1579 370.652 65.1579H387.376C389.114 65.1579 389.983 65.9588 389.983 67.5471L393.023 158.119C393.159 158.554 393.39 158.771 393.675 158.771C393.974 158.771 394.191 158.554 394.327 158.119L418.653 67.5471C419.087 65.9588 420.106 65.1579 421.694 65.1579H441.459C442.192 65.1579 442.681 65.443 442.979 66.0267C443.414 66.4611 443.563 67.1127 443.414 67.9815L398.671 214.809C398.236 216.397 397.232 217.198 395.63 217.198H377.602C376.014 217.198 375.213 216.397 375.213 214.809L372.389 122.499C372.389 121.915 372.254 121.63 371.955 121.63C371.67 121.63 371.385 121.915 371.086 122.499L346.76 214.809C346.326 216.397 345.321 217.198 343.719 217.198H325.691Z" fill="#FEFEFE"/>
</g>
</g>
<defs>
<linearGradient id="paint0_linear_3849_637" x1="580.548" y1="248.653" x2="474.582" y2="-140.773" gradientUnits="userSpaceOnUse">
<stop stop-color="#F2C94C"/>
<stop offset="0.649" stop-color="#27AE60"/>
<stop offset="1" stop-color="#6FCF97"/>
</linearGradient>
<clipPath id="clip0_3849_637">
<rect width="543" height="271.5" fill="white"/>
</clipPath>
</defs>
</svg>
