<svg width="24" height="24" viewBox="0 0 24 24" fill="none" xmlns="http://www.w3.org/2000/svg">
<path d="M4.50004 21.4224C2.56704 21.4224 1.13878 19.8616 1.30993 17.9361C1.48108 16.0107 3.18682 14.4499 5.11982 14.4499C6.70502 14.4499 7.95078 15.4997 8.25335 16.9393L13.8985 16.9395L14.0755 14.9479L16.0756 14.9473L16.5852 9.21392L14.5409 6.97873H8.78392L8.60679 8.97152H2.60679L3.13802 2.99508H9.13802L8.961 4.98659H14.718L18.248 1.75732L22.115 5.9833L18.5854 9.21193L18.0756 14.9473L20.0755 14.9479L19.5443 20.9244H13.5443L13.7214 18.9316L8.07635 18.9325C7.51801 20.3724 6.08547 21.4224 4.50004 21.4224ZM4.94274 16.442C4.11431 16.442 3.38328 17.111 3.30993 17.9361C3.23657 18.7614 3.84869 19.4303 4.67712 19.4303C5.50555 19.4303 6.23657 18.7614 6.30993 17.9361C6.38328 17.111 5.77117 16.442 4.94274 16.442ZM17.8985 16.9401H15.8985L15.7214 18.9322H17.7214L17.8985 16.9401ZM17.9976 4.57464L16.4582 5.9833L17.7472 7.39196L19.2866 5.9833L17.9976 4.57464ZM6.96094 4.98723H4.96094L4.78386 6.97937H6.78386L6.96094 4.98723Z" fill="black"/>
</svg>
